<?xml version="1.0" encoding="UTF-8"?>
<svg xmlns="http://www.w3.org/2000/svg" viewBox="0 0 505.36 504.85">
  <defs>
    <style>
      .cls-1 {
        fill: #96e5c2;
      }

      .cls-1, .cls-2, .cls-3, .cls-4 {
        fill-rule: evenodd;
      }

      .cls-2 {
        fill: #00a376;
      }

      .cls-3 {
        fill: #efdcb8;
      }

      .cls-5 {
        isolation: isolate;
      }
    </style>
  </defs>
  <g id="Base" class="cls-5">
    <g id="Base-2" data-name="Base">
      <path class="cls-1" d="M474.22,153.98C439.9,75.69,354.7,8.47,238.88,10.85c-7.25,4.64-19.08,.56-28.82,2.88-16.51,3.94-35.03,7-49.95,13.45C96.35,54.73,50.33,103.71,23.7,168.39c-5.68,13.81-5.38,28.44-9.61,44.19-9.21,34.33-2.2,79.87,7.68,109.51,24.35,73,66.75,122.23,134.48,151.77,14.5,6.33,32.07,11.99,48.99,16.33,10.57,.64,21.13,1.28,31.7,1.92,6.06,1.45,20.08,4.25,28.82,1.92,20.09-5.36,46.6-4.81,65.32-12.49,63.41-26,114.98-68.63,142.17-130.64,25.62-58.44,27.05-137.41,.96-196.92Zm-138.86,132.94c-13,31.12-41.19,49.51-77,58-17.4,4.13-34.4-5-44-10-32.31-16.82-70.63-57.81-49-111,9.77-24.02,29.08-43.2,53-53,8.05-3.3,19.28-1.44,26-6,48.08-.06,74.63,25.97,89,60,6.83,16.18,9.54,43.96,2,62Z"/>
    </g>
  </g>
  <g id="Green_shadow" data-name="Green shadow" class="cls-5">
    <g id="Green_shadow-2" data-name="Green shadow">
      <path class="cls-2" d="M470.32,318.92c11.34-34.91,9.23-87.9-1-122-5.01-16.71-6.69-32.2-13-47-19.14-44.91-78.91-98.54-125.99-116-31.38-11.64-96.57-16.58-133.99-6-19.35,5.47-41.75,10.62-56.99,21-9.56,6.51-16.59,16.83-26.12,23.39-.3,.31-.6,.61-.91,.91-.2,2.05-.21,2.58-.97,3.7v1c1.73,.65,.98,.2,2,1,11.95-.62,20.8-9.02,29-14,14.42-8.76,33.04-14.52,50-20,21.01-6.79,66.39-11.22,91.99-5,13.52,3.29,28.61,7.19,43,9-1.48,3.18-6.23,7.95-9,10,.2,4.17,.7,4.58,2,7,4.72,.07,5.63,.48,7-3,4.92,.48,5.29,1.84,9,3-.38,5.81-1.92,12.65-5,16v3c2.85,.63,6.04,1.44,8,3,2.66-2.76,2.74-6.68,5-10,2.33-2.33,4.67-4.67,7-7,8.09,.76,22.24,10.27,27,15,1.66,1.66,2.18,5.61,4,7h4c.67,1.33,1.33,2.67,2,4h7c3.02,1.1,4.93,4.63,8,6-1.09,2.35-1.94,2.78-4,4,1.9,7.77,13.12,12.72,19,17,9.52,6.93,19.07,19.64,24,31,10.24,23.61,12.47,52.02,19,80,.33,9.33,.67,18.67,1,28,2.54,11.72,5.34,29.75,2,43-3.1,12.28-7.36,25.03-11,36-.33,2.33-.67,4.67-1,7-2.09,3.46-6.17,2.23-8,7-1.24,1.82-1.12,5.72-1,9h3c-4.86,18.46-21.96,27.74-32,41-7.51,9.92-15.98,15.57-26,23-35.25,26.14-84.54,58.15-149.99,47-7.07-1.2-16.79,2.14-26,0-13.33-3.67-26.67-7.33-40-11-46.45-19.89-80.84-48.72-105.99-90-2-1.67-4-3.33-6-5-7.72-10.66-14.82-23.41-20-36-5.62-13.66-7.39-29.86-11-45-6.78-28.46-1.71-69.55,5-92,17.25-57.71,33.63-89.55,75.99-122,.68-.52,1.34-1.09,1.97-1.7,0-.1,.02-.19,.03-.3,.3-.2,.59-.41,.88-.61,3.79-3.95,6.89-9.16,10.12-13.39,3.86-5.05,18.27-13.26,24-17v-2c-18.57,2.88-48.14,30.15-59.99,42-24.63,24.62-44.79,53.97-58.99,89-4.65,11.48-4.55,23.36-8,36-4.66,17.12-10.16,45.94-5,68,4.16,17.8,5.65,34.52,11,52,4.57,14.93,13.45,29.58,21,42,35.85,58.98,68.69,87.24,139.99,111,14.92,4.97,53.56,12.17,72.99,8h21c25.91-6.25,51.18-11.39,72.99-21,4.91-2.16,9.64-6.35,14-9,3.25-1.98,6.76-1.99,10-4,30.35-18.81,51.78-42.87,71.99-72,4.11-5.93,10.25-12.95,13-20,1.76-4.5-1.4-7.11,0-13,2.28-9.59,3.79-20.11,7-30ZM172.35,136.92c10.09-7.19,23.49-13.93,36-18,6.33-1,12.67-2,19-3,5.87-1.66,18.95-4.95,27-3,17.15,4.15,33.49,3.95,48,10,38.67,16.14,64.37,43.51,80.99,82,5.19,12.01,9.53,27.21,11,43,.47,5.11,1.1,15.74-1,19v1c2.32-.74,2.23-1.04,4-2,1.98-9.48,2.06-21.36,0-31,.33-9.33,.67-18.67,1-28-16.24-55.4-62.3-87.35-119.99-102-12.18-3.09-26.79-2.17-41-2-3.66,2.36-10.17,.81-15,2-8.67,2.33-17.33,4.67-26,7-17.35,7.28-31.89,18.64-46,29-.14,4.87-.2,8.6,2,11,.53,1.22,16.79-12.71,20-15Zm-79.99,144c2.73,.02,4.58,.04,6,1,5.45,3.61,5.29,22.52,8,30,4.75,13.11,14.05,26.31,22,37,13.58,18.26,35.83,33.5,57.99,43,7.32,3.14,20.66,3.91,27,8h2v-2c-36.84-9.44-76.21-42.79-93.99-72-6.42-10.54-8.06-22.85-12-36-4.23-14.14-10.78-45.7-6-64,2.2-8.42,5.98-17.57,9-25,4.18-10.28,5.5-22.9,12-31v-2c-7.55,2.66-11.38,14.18-15,21-11.8,22.2-21.31,60.33-17,92Z"/>
    </g>
  </g>
  <g id="Yellow_highlights" data-name="Yellow highlights" class="cls-5">
    <g id="Yellow_highlights-2" data-name="Yellow highlights">
      <path class="cls-3" d="M120.03,147.92c.34,.33,.68,.67,1.01,1,2.04-3.38,4.84-6.84,8.12-9-1.82-4.83-29.51-32.3-34.49-34-2.57,4.02-6.35,9.15-10.14,12,1.28,4.82,29.94,27.3,35.51,30Zm295.21-28h1.01c-3.36-3.56-9.51-9.14-14.2-11-8.79,8.67-17.58,17.33-26.38,26,1.87,5.56,6.28,8.31,9.13,13,4.72-1.65,27.41-23.42,30.43-28Zm-129.97,6.27c-13.56-4.42-28.81-5.46-46.09-5.24-3.75,2.33-9.69,.85-14.66,2.1-8.32,2.09-17.19,4.02-25.14,7.33-33.84,14.12-61.24,41.77-75.42,75.43-2.44,9.08-4.89,18.16-7.33,27.24-3.6,14.76-2.38,34.06,1.05,47.15,13.17,50.28,37.63,79.45,83.79,96.39,13.68,5.02,42.15,13.17,63.89,8.38,54.92-12.09,89.95-35.52,109.98-81.72,36.26-83.63-29.75-157.39-90.08-177.06Zm35.09,207.28c-13.08,9.88-22.48,22.7-45.93,22.45-7.82-8.22-23.4,.37-38.11-2.93-17.54-3.93-32.41-8.77-44.95-17.57-18.13-12.71-33.52-32.45-41.04-55.64-12.1-37.3,7.79-80,25.41-97.61,10.77-10.76,26.54-20.72,42.02-26.35,5.99-2.18,14.35-.7,19.54-3.9,63.1-.48,96.27,31.29,111.4,78.08,14.56,45.02-2.14,83.68-28.34,103.46Zm-205.4,22.45c-5.82,8.78-29.15,25.8-41.59,28,3.83,13.68,18.23,21.87,25.36,33,5.63-.6,4.35-2.08,7.1-5-1.2-4.43-4.32-4.37-7.1-7-.82-1.03-.37-.25-1.01-2,10.48-10.33,20.97-20.67,31.45-31-1.88-5.3-9.61-13.08-14.2-16Zm273.9,2c-2.35,4.7-5.38,8.64-10.14,11,2.31,11.06,27.6,24,34.49,34,2.27-1.23,9.4-13.93,10.14-17,.82-1.03,.37-.25,1.01-2-11.11-6.69-23.43-22.26-35.51-26Z"/>
    </g>
  </g>
  <g id="outlines" class="cls-5">
    <g id="outlines-2" data-name="outlines">
      <path class="cls-4" d="M237.09,0C-99.98,10.64-66.18,530.78,265.73,503.84,593.68,476.33,585.85-.08,237.09,0Zm-6.89,470.86c-76.59-4.59-131.46-39.68-164.88-88.19,3.02,3.47,17.79-2.38,41.83-23.35,43.22,8.51-38.98,47.3-2.04,50.18,8.91-9.35,19.26-17.2,28.65-26.1,26.14,2.47-17.78,32.74-15.35,40.15,9.81,18.55,22.21-4.41,27.63-14.05,10.7-23.11,43.2-1.3,58.31,5.02,4.89,14.16-12.35,35.96-4.09,47.17,21.69,4.38,10.82-39.8,19.44-48.18,.31-22.66-46.12-16.62-60.36-33.12-63.18-30-50.01-109.97-88-99.36-51.6-4.46-25.43,44.77-12.28,69.25,15.59,5.38,36.44-28.73,41.96-5.01-27.3,18-38.29,32.61-35.98,36.99C-21.89,255.44,37.43,37.48,238.84,32.06c328.17-5.07,302.63,465.11-8.65,438.8ZM54.97,306.12c-3.75-10.18,3.8-9.99,10.23-13.05,24.38-.76,14.53,10.76,23.53,23.09-2.66,10.58-20.84,24.86-27.63,12.04,9.44-14.55,23.25-21.11-6.13-22.08ZM239.14,97.36c1.85-14.75,12.57-57.77-16.37-48.18-13.84-.46-45.75,4.91-52.18,15.06-1.82,13,17.07,28.01,5.11,38.14-9.64,3.88-19.29-27.56-24.55-34.13-41.67,10.52-40.06,27.53-19.44,55.21-12.25-.18-26.2-37.25-37.85-21.08-2.42,16.49,38.19,30.88,22.5,43.16-12.48,1.84-43.65-41.57-41.94-13.05,9.63,8.44,30.96,19.33,30.69,32.12-50.72-30.72-47.84-20.73-63.43,33.12,89.65,52.65,37.74-79.91,197.46-100.37Zm-23.53-37.14c17.01-3.13,13.57,16.65,11.25,25.09-2.86,6.85-15.52,5.21-21.49,9.03-16.43,.42-11.09-10.36-17.39-19.07,.24-16.26,17.36-8.95,27.62-15.06ZM80.55,196.72c-26.97-.12-26.78-20.44-10.24-35.13,19.59,4.18,25.6,23.68,10.24,35.13Zm60.36-111.41c10.2,3.1,21.09,23.88,10.23,30.11-13.82-2.23-26.86-22.66-10.23-30.11Zm240.45,84.3c14.25,40.22,31.78,52.35,69.57,29.12-13.84-47.81-16.06-61.35-60.37-36.13-1.21-10.89,34.76-25.06,31.71-35.13-14.87-23.73-32.32,33.94-48.09,11.04,.65-12.3,20.68-26.4,28.65-33.13-16.62-32.43-39.68,46.11-59.34,7.03,.97-13.84,18.63-37.59,20.46-12.05,8.3,7.41,21.74-2.84,17.39-11.04-46.3-48.89-31.61,16.85-57.3,13.04,.93-14.53,17.75-28.71,8.19-39.14-13.76,.64-18.38,23.61-23.54,33.13-31.87-8.68,37.81-53.6-47.06-48.18-39.38,76.03,85.95,47.22,119.71,121.44Zm35.8-5.01c21.49,8.96,21.3,34.33-7.16,32.12-11.4-11.73-7.85-26.8,7.16-32.12ZM273.92,60.22c27.65-7.76,17.15,38.44-3.07,28.1-2.04-7.82-2.18-22.01,3.07-28.1Zm-32.02,47.2c-159.28,1.92-204.12,237.63-45.14,282.63,224.62,74.81,292.59-277.63,45.14-282.63Zm-34.48,264.95c-136.54-35.19-102.95-241.21,32.73-245.9,210.65,2.05,161.85,304.22-32.73,245.9Zm26.98-220.23c-112.29,10.06-132.02,165.43-25.79,198.61,179.64,55.31,205.4-211.13,25.79-198.61Zm20.65,185.87c-107.86,7.24-126.76-155.88-12.42-166.12,112.29-1.13,122.22,153.21,12.42,166.12ZM39.62,214.79c-27.74,32.65,40.33,42.46,13.3,16.06-2.81-2.59,9.68-2.63,11.26-1,13.82-1.49,8.93,24.57,5.11,28.1-9.03,5.05-25.59-4.44-34.79,4.02-7.56,18.33,44.04,6.43,48.09,6.02,16.74-40.59,4.45-55.7-42.97-53.2Zm383.68,41.15c-2.39-10.25-5.28-26.31,8.18-28.1,13.5-1.44,12.12,4.34,2.05,9.03-.68,11.84,16.11,10.32,22.51,7.03,6.43-7.99,4.25-33.98-11.26-29.11-46.62,5.35-39.53,8.42-34.79,51.19,5.66,7.21,57.68,12.5,48.09-5.03-10.55-3.34-26.23,1.95-34.79-5.02Zm-13.3,24.09c-17.93,63.19-65.02,110.07-129.93,127.46-11.03,45.31,35.46,86.07,13.3,16.06-2.11-9.92,3.85-11.8,13.3-13.04,27.03-20.37,47.93-5.52,64.46,20.06,31.29,2.29-8.45-31.18-16.37-38.14,1.05-28.03,33.74,10.14,39.9,17.06,30.85-.22-10.34-30.02-17.39-36.13,4.06-28.95,34.62,5.7,47.07,13.05,32.36-3.58-21.55-32.88-28.65-39.14,.98-24.56,28.36,7.94,37.86,5.02,11.28-6.97,27.86-49.51,22.5-64.24-4.03-4.89-35.67-8.31-46.04-8.03Zm30.69,28.1c-7.62-1.73-23.16-1-17.39,9.03,33.37,34.04-43.54,10.88-2.05-24.09,10.5-.05,30.28,3.02,19.44,15.06Zm-198.49,142.52c-7.47-10.75,7.39-48.51-10.23-48.18-4.25,15.2-8.26,45.81-2.05,62.22,52.64,15.44,44.13-25.88,38.88-57.21-25.6-20.15,3.67,65.66-26.6,43.16Zm-69.57-14.05c-13.19,1.83-12.12-11.17-6.14-18.06,.14-7.3-2.04-8.77-8.18-8.03-6.23,8.02-15.7,19.37-14.33,29.1,20.29,17.78,41.66,21.87,47.07-11.04-1.13-23.43-16.99-3.35-18.42,8.03Zm160.63-26.09c-7.49,6.38,5.94,22.95-2.05,26.1-9.04-.35-10.68-9.85-13.3-16.06-21.67-4.82-5.23,24.89-1.03,32.11,34.81,6.57,44.2-32.3,16.37-42.15Z"/>
    </g>
  </g>
</svg>