<?xml version="1.0" encoding="UTF-8"?>
<svg xmlns="http://www.w3.org/2000/svg" viewBox="0 0 503.18 503.99">
  <defs>
    <style>
      .cls-1 {
        fill: #af876a;
      }

      .cls-1, .cls-2, .cls-3, .cls-4, .cls-5 {
        fill-rule: evenodd;
      }

      .cls-2 {
        fill: #96e5c2;
      }

      .cls-3 {
        fill: #00a376;
      }

      .cls-4 {
        fill: #efdcb8;
      }

      .cls-6 {
        isolation: isolate;
      }
    </style>
  </defs>
  <g id="Base" class="cls-6">
    <g id="Base-2" data-name="Base">
      <path class="cls-2" d="M483.48,149.06C447.75,67.56,359.05-2.41,238.48,.06c-7.54,4.83-19.86,.58-30,3-17.19,4.1-36.47,7.29-52,14C90.1,45.74,42.2,96.73,14.48,164.06c-5.92,14.37-5.6,29.61-10,46-9.59,35.74-2.29,83.15,8,114,25.35,75.99,69.49,127.24,140,158,15.1,6.59,33.39,12.48,51,17,11,.67,22,1.33,33,2,6.31,1.51,20.91,4.43,30,2,20.91-5.58,48.51-5.01,68-13,66.01-27.07,119.7-71.45,148-136,26.67-60.84,28.16-143.05,1-205Zm-148,137c-13,31.12-41.19,49.51-77,58-17.4,4.13-34.4-5-44-10-32.31-16.82-70.63-57.81-49-111,9.77-24.02,29.08-43.2,53-53,8.05-3.3,19.28-1.44,26-6,48.08-.06,74.63,25.97,89,60,6.83,16.18,9.54,43.96,2,62Z"/>
    </g>
  </g>
  <g id="Green_shadow" data-name="Green shadow" class="cls-6">
    <g id="Green_shadow-2" data-name="Green shadow">
      <path class="cls-3" d="M470.48,318.06c11.35-34.91,9.23-87.9-1-122-5.01-16.71-6.69-32.2-13-47-19.15-44.91-78.92-98.54-126-116-31.39-11.64-96.58-16.58-134-6-19.35,5.47-41.75,10.62-57,21-9.56,6.51-16.59,16.83-26.12,23.39-.3,.31-.6,.61-.91,.91-.2,2.05-.21,2.58-.97,3.7v1c1.73,.65,.98,.2,2,1,11.95-.62,20.8-9.02,29-14,14.42-8.76,33.05-14.52,50-20,21.02-6.79,66.4-11.22,92-5,13.53,3.29,28.61,7.19,43,9-1.48,3.18-6.23,7.95-9,10,.2,4.17,.7,4.58,2,7,4.72,.07,5.63,.48,7-3,4.92,.48,5.29,1.84,9,3-.38,5.81-1.92,12.65-5,16v3c2.85,.63,6.04,1.44,8,3,2.66-2.76,2.74-6.68,5-10,2.33-2.33,4.67-4.67,7-7,8.09,.76,22.25,10.27,27,15,1.66,1.66,2.18,5.61,4,7h4c.67,1.33,1.33,2.67,2,4h7c3.02,1.1,4.93,4.63,8,6-1.09,2.35-1.94,2.78-4,4,1.9,7.77,13.12,12.72,19,17,9.52,6.93,19.07,19.64,24,31,10.25,23.61,12.47,52.02,19,80,.33,9.33,.67,18.67,1,28,2.54,11.72,5.34,29.75,2,43-3.1,12.28-7.36,25.03-11,36-.33,2.33-.67,4.67-1,7-2.09,3.46-6.17,2.23-8,7-1.24,1.82-1.12,5.72-1,9h3c-4.86,18.46-21.96,27.74-32,41-7.51,9.92-15.99,15.57-26,23-35.25,26.14-84.54,58.15-150,47-7.07-1.2-16.8,2.14-26,0-13.33-3.67-26.67-7.33-40-11-46.46-19.89-80.85-48.72-106-90-2-1.67-4-3.33-6-5-7.72-10.66-14.82-23.41-20-36-5.62-13.66-7.39-29.86-11-45-6.78-28.46-1.71-69.55,5-92,17.25-57.71,33.64-89.55,76-122,.68-.52,1.34-1.09,1.97-1.7,0-.1,.02-.19,.03-.3,.3-.2,.59-.41,.88-.61,3.79-3.95,6.89-9.16,10.12-13.39,3.86-5.05,18.27-13.26,24-17v-2c-18.57,2.88-48.15,30.15-60,42-24.63,24.62-44.8,53.97-59,89-4.65,11.48-4.55,23.36-8,36-4.66,17.12-10.16,45.94-5,68,4.16,17.8,5.65,34.52,11,52,4.57,14.93,13.45,29.58,21,42,35.86,58.98,68.7,87.24,140,111,14.92,4.97,53.57,12.17,73,8h21c25.91-6.25,51.18-11.39,73-21,4.91-2.16,9.65-6.35,14-9,3.25-1.98,6.76-1.99,10-4,30.35-18.81,51.79-42.87,72-72,4.11-5.93,10.25-12.95,13-20,1.76-4.5-1.4-7.11,0-13,2.28-9.59,3.79-20.11,7-30ZM172.48,136.06c10.09-7.19,23.5-13.93,36-18,6.33-1,12.67-2,19-3,5.87-1.66,18.95-4.95,27-3,17.15,4.15,33.49,3.95,48,10,38.67,16.14,64.37,43.51,81,82,5.19,12.01,9.53,27.21,11,43,.47,5.11,1.1,15.74-1,19v1c2.32-.74,2.23-1.04,4-2,1.98-9.48,2.06-21.36,0-31,.33-9.33,.67-18.67,1-28-16.24-55.4-62.31-87.35-120-102-12.18-3.09-26.79-2.17-41-2-3.66,2.36-10.17,.81-15,2-8.67,2.33-17.33,4.67-26,7-17.35,7.28-31.9,18.64-46,29-.14,4.87-.2,8.6,2,11,.53,1.22,16.79-12.71,20-15Zm-80,144c2.73,.02,4.58,.04,6,1,5.46,3.61,5.29,22.52,8,30,4.75,13.11,14.05,26.31,22,37,13.58,18.26,35.83,33.5,58,43,7.32,3.14,20.66,3.91,27,8h2v-2c-36.85-9.44-76.22-42.79-94-72-6.42-10.54-8.06-22.85-12-36-4.23-14.14-10.78-45.7-6-64,2.2-8.42,5.98-17.57,9-25,4.18-10.28,5.5-22.9,12-31v-2c-7.55,2.66-11.38,14.18-15,21-11.8,22.2-21.31,60.33-17,92Z"/>
    </g>
  </g>
  <g id="Yellow_shadow" data-name="Yellow shadow" class="cls-6">
    <g id="Yellow_shadow-2" data-name="Yellow shadow">
      <path class="cls-1" d="M358.48,254.06c-1-.33-2-.67-3-1,.38,49.91-42.28,96.52-85,102,1.08,3.08,2.44,3.61,4,6,22.96,1.8,33.46-9.94,47-20,27.45-20.4,37.81-41.05,37-87Z"/>
    </g>
  </g>
  <g id="Green_highlight" data-name="Green highlight" class="cls-6">
    <g id="Green_highlight-2" data-name="Green highlight">
      <path class="cls-2" d="M488.48,232.06v-10c-4.29-18.33-6.34-36.85-13-53-28.32-68.66-77.87-117.67-151-142-22.53-7.5-62.21-16.58-88-10h-24c-21.19,4.99-42.7,8.89-60,18-4.85,2.55-5.66,7.38-9,10-5.54,4.34-13.05,6.12-18,11-3.17,3.13-4.82,7.89-8,11-16.55,16.19-35.33,29.94-49,49-17.36,24.21-27.1,51.82-36,85-12.46,46.47-2.32,116.69,16,148,5.26,8.99,9.13,19.74,17,26l1,1c5.72-8.15,17.86-13.13,26-19,4.66-3.36,8.09-8.84,13-12-5.78-10.01-30.77,1.78-35,6-7.98-1-7.97-8.17-11-14-7.45-14.35-13.79-29.32-13-52,14.19-1.26,28.22-5.23,46-5-.67-3.67-1.33-7.33-2-11l-1-1c-9.33,1-18.67,2-28,3-6.75,.08-15.88,.74-21-1v-11c3.99-.15,5.69-1.43,8-2,7.68-1.9,19.08,4.37,26,0h2c.51-2.13,.89-3.62,2-5,.2-6.08,1.61-19.37-2-22-1.66-1.21-5.4-.99-7-2-3.82-.04-7.55,.15-10,1,.67,1,1.33,2,2,3,2,.33,4,.67,6,1-.23,2.32-.2,2.82-1,4,0,3.33-.29,5.95-1,8-4.1,.12-10.52,.64-13-1h-10c-1.99-10.27,.52-21.56,1-31,12.22,.86,44.23,2.24,51,8,2.32-.74,2.23-1.04,4-2-.18-4.65-.22-3.82,0-8-12.4-.94-41.33-5.19-49-11h-2c3.65-18.33,11.37-47.35,24-56,1.03-.81,.25-.37,2-1,4.25,4.15,10.84,4.61,16,8l8,8c3.04,2.18,7.08,2.74,10,5,3.13-.72,2.1-.66,4-2-2.54-12.53-25.22-22.92-33-32-.81-1.03-.37-.25-1-2,9.85-10.11,17.16-25.1,29-33l1-1c6.38,12.41,18.37,19.76,28,29h1c-.63-5.15-14.36-25.42-18-29,1.9-10.09,26.33-25.46,37-28l18,36h7c6.68-3.24-3.92-31.01-7-35,.86-8.36,7.41-8.48,14-11,15.03-5.76,33.27-8.7,55-8,.42,9.54,4.45,20.65,2,32-1.21,5.59-1.95,12.02-2,19-28.61,1.18-57.31,10.62-76,23-6.18,4.09-11.24,10.65-17,15-6.11,4.61-14.1,10.43-18,17-7.94,13.36-11.86,26.76-18,42-7.62,18.89-14.61,36.94-9,61v14c3.9,14.97,7,31.37,13,45,16.79,38.14,63.62,71.12,106,84-4.7,13.93-2.99,49.43-10,59v2c-4.67-.67-9.33-1.33-14-2,.49-6.52,5.35-29.96,8-34,.72-24.34-28.1-19.01-42-29-12.07,1.33-16.39,16.65-22,25l-9,9c-6.39-.54-10.66-4.36-14-8h-1c1.54-2.55,3.24-1.09,5-3,8-8.69,13.57-19.76,22-28-.04-7.01-1.37-6.05-5-9-7.48,.94-33.48,28.03-42,34,3.53,10.07,23.08,21.05,32,27,22.27,14.85,46.81,24.25,77,32,9.67,.33,19.33,.67,29,1,8.91,1.96,37.38,2.22,47,0,14.81-3.42,31.08-5.66,45-11,22.93-8.8,41.91-22.62,60-36,10.09-7.46,19.12-13.3,26-24,3-2.33,6-4.67,9-7,6.22-8.17,18.71-21.48,22-31,.81-1.17,.8-1.67,1-4h-3c-.33-.33-.67-.67-1-1,.61-6.28,2.29-11.44,9-12,3.32-14.13,8.4-27.55,12-43,2.98-12.78,1.44-30.68-1-42v-20c-4.95-21.8-5.79-45.9-12-65-6.39-19.65-10.56-39.71-26-50-.33-.33-.67-.67-1-1-4.95,6.46-13.4,10.11-20,15-5.89,4.37-9.78,10.97-15,16,1.31,2.41,2.04,2.36,5,3,6.62-7.1,19.32-10.29,25-18,14.18,3.14,28.35,38.77,30,56-16.91,2.45-32.03,9.89-52,10-.33,6-.67,12-1,18,1.8,7.39,4.52,22.56,2,32-1.5,5.61-3.91,4.87-5,7-.33,4-.67,8-1,12-2.33,8.67-4.67,17.33-7,26-14.17,33.21-39.53,57.9-72,73-19.77,9.19-55.06,21.4-85,13-51.5-14.44-90.27-36.3-110-82-9.81-22.72-14.82-69.19-5-98,6.04-17.72,16.05-31.54,26-45,3.91-5.29,7.52-11.34,13-15-.83-5.03-3.05-8.57,0-12,2.72-6.68,15.23-10.97,21-15,35.86-25.05,93.83-30.33,138-9,8.98,4.33,16.88,5.26,24,11h2c-.55-1.52-.71-1.67-1-4-8.85-.66-12.69-5.73-19-9-8-3-16-6-24-9-8.39-2.71-26.15-1.83-33-6h-2c.02-17.86,.34-33.89,1-50l1-1c18.48,.15,31.59,3.3,46,5l1,1c1.87,11.22-10.25,32.1-6,39v2c1.73,.65,.98,.2,2,1,12.04-.35,12.39-22.47,21-29v-2c-2.17-.94-3.59-1.3-5-3-.81-1.03-.37-.25-1-2,3.65-3.6,5.31-7.23,10-10v-2c-9.2-3.42-18.56-3.17-29-6-60.75-16.45-126.57,3.05-164,26-6.29,3.85-13.34,5.57-19,10-2.32-.23-2.82-.2-4-1h-1c1.91-5.29,7.07-8.41,10-13h4c1.64-12.99,32.56-23.36,45-28,56.97-21.26,140.41-17.41,187,11,37.14,22.65,81.37,63.54,99,105,6.84,16.09,8.95,31.15,14,50,3.58,13.36,11.02,51.96,7,70-2.44,10.96,.03,20.13-3,31-3.95,14.19-12.3,38.99-11,53h1c2.17-8.18,6.92-15.49,10-23,9.19-22.43,21.1-68.11,14-101ZM184.48,453.06c-6.32,3.81-31.3-11.25-38-13,2.08-14.3,10.76-22.97,17-33,2.86,.36,4.32,.66,6,2h2c-.94,6.14-6.72,17.82-4,22,.33,1,.67,2,1,3,1.73,.65,.98,.2,2,1,9.8-.08,10.6-12.03,13-19,4,.33,8,.67,12,1l1,1c-2.57,10.97-5.69,26.98-12,35Zm136,0c-10.67-2.9-8.7-23.27-15-31v-2c3-1,6-2,9-3,4.86,1.05,9.62,12.85,12,17,1.73,.65,.98,.2,2,1,2.6-.2,3.4-.44,5-1,.04-7.59-.7-15.42-4-20v-4c2.85-.63,6.04-1.44,8-3,7.9,4.45,10.4,24.3,16,32-4.35,8.45-24.62,8.81-33,14Zm134-240c.18,10.63,1.81,20.01,1,31-7.15,.55-15.92,.86-23,0-.41-2.09-.95-5.48-2-7,1.15-4.4,5.32-4.59,9-6,.65-1.73,.2-.98,1-2v-1c-6.62-1.32-12.02,.13-18,1-3.59,7.84-2.28,16.39-1,26,7.79,3.72,25.02,4.05,36,4,.06,4.33,0,9.11-1,12-11.97,.08-39.75,1.58-47-3-6.77-8.74-1.86-34.58-4-47,12.92-5.02,33.27-7.26,49-8Zm-174,192c1.27-2.24,16.38-5.64,20-7,13.93-5.23,29.95-11.68,40-19,31.35-22.86,56.59-55.66,66-100,18.8,.2,32.97,4.27,49,6-3.38,22.69-8.09,52.15-22,67-4.08,1.6-25.86-11.59-30-15-7.01,.04-6.05,1.37-9,5,.93,8.1,8.72,9.26,14,13,9.14,6.47,17.23,14.97,27,21-.96,4.08-5.13,8.75-9,10-.85,1.14-5.49-2.22-8-3-5.34,11.48-9.6,20.41-21,26-1.99,1.4-7.01-3.04-9-5-6.33-6.67-12.67-13.33-19-20-2.37-1.72-4.99-2.03-7-4-4.58,.91-4.89,2.91-8,5v6c3.33,3,6.67,6,10,9,6.89,6.89,12.85,17.67,21,23-2.57,3.68-6.5,4.29-10,7-9.14-.44-10.95-8.44-15-14-5.66-7.77-15.37-12.63-20-19-12.54,.71-19.83,7.14-29,11-4.56,1.92-10.22,1.41-14,4-1,.33-2,.67-3,1,.34,17.25,7.49,29.59,8,47-3.1-.07-6.31-.14-8,1h-5c-1.33-5.32-3.64-8.83-4-15h-3c-.11-4.4,.17-15.61-2-19v-22Zm-49-4c2.73-.02,4.58-.04,6-1,2.6,.2,3.4,.44,5,1,.18,8.8,4.57,26.89,0,34-.26,10.03-.07,10.7,4,16,4.07,.05,8.33-.08,11-1,2.81-14.18,1.9-31.61,2-47,4.33-.33,8.67-.67,13-1,.14,9.75,4.46,42.98,0,50,.06,4.33,0,9.11-1,12-16.04,.02-26.83,.71-42-1,.67-20.66,1.33-41.34,2-62Zm-5-313l4-4c.08-7.03,.83-16.62-1-22-3.23-1.35-5.93-2.08-11-2-5.18,4.07-19.22,4.49-25,7-3.43,8.64,1.37,17.54,5,25,7.12,2.87,22.07,.74,28-4Zm59,1c1.95-4.74,4.18-16.61,6-19v-8c-5.04-1.11-9.37-2.1-16-2-.98,1.77-1.29,1.65-2,4-2.24,3.06-3.84,17.93-1,22v2c5.03,1.07,8.27,1.42,13,1Zm41,14c1.03,.81,.25,.37,2,1,1.57-1.51,4.74-2.25,6-4,2.83-3.91,3.12-9.29,6-13-2.24-1.71-6.61-2.69-10-3-1.12,4.22-3.42,10.68-6,14,.33,3.56,.06,3.33,2,5Zm-167,9c2.13-11.31-5.14-18.69-10-26-1.67-.33-3.33-.67-5-1l-8,8c-2.39,7.66,12.42,18.77,16,22,4.5-.46,4.27-1.29,7-3Zm201-23c-2-.33-4-.67-6-1-3.5,5.95-6.87,15.53-11,21,.94,8.96,8.85,10.3,14,15,9.18-.46,22.18-21.26,31-27-.78-3.39-1.63-3.44-3-6-4.67,1.09-9.12,8.73-12,12-6.43-.29-6.74-2.17-12-3,.65-1.73,.2-.98,1-2,0-4.78-.56-6.33-2-9ZM65.48,187.06c2.49,6.13,11.77,5.57,17,9,5.28-.55,7.13-3.16,10-6,1.97-2.84,1.98-7.38,4-10-.38-9.65-11.83-18.06-21-19-2.17,5.63-15.62,17.4-10,26Zm357-21c-3-.79-3.52-1.55-7-2-3.47,3.43-10.41,4.84-13,9-4.5,7.24,2.71,18.31,5,23,10.17-.1,16.5-3.28,23-7,1.2-8.08-4.68-16.03-8-23ZM67.48,324.06c.84,5.54,3.03,5.94,6,9,7.37-.73,18.02-8.6,20-15,.87-1.61-3.98-18.49-6-21-3.83-5.85-16.82-6.85-23-2-1,.33-2,.67-3,1-.65,1.73-.2,.98-1,2,.02,2.73,.04,4.58,1,6,4.32,2.95,9.87,1.28,16,1,1.01,4.12,2.51,7.34,3,12-3.41,.21-5.11,.48-7,2-3.49,1.23-3.73,2.82-6,5Zm356,9c2.85-.11,4.28-.4,6-1,.67-2.33,1.33-4.67,2-7-3.47-3.09-7.53-5.88-12-8,.75-5.45,2.81-7.53,4-12,2.79,.28,7.97,.66,10,2h6c.63-2.23,.74-2.64,2-4-.05-3.09-.35-5.13-1-7-6.79-1.83-12.94-4.13-22-4-2.2,4.21-6.11,7.86-8,12-1.84,4.04-1.65,8.58-4,12,.21,11.54,10.32,12.02,17,17Z"/>
    </g>
  </g>
  <g id="Yellow_highlights" data-name="Yellow highlights" class="cls-6">
    <g id="Yellow_highlights-2" data-name="Yellow highlights">
      <path class="cls-4" d="M119.48,147.06l1,1c2.01-3.38,4.77-6.84,8-9-1.79-4.83-29.09-32.3-34-34-2.53,4.02-6.26,9.15-10,12,1.26,4.82,29.52,27.3,35,30Zm291-28h1c-3.31-3.56-9.38-9.14-14-11-8.67,8.67-17.33,17.33-26,26,1.84,5.56,6.19,8.31,9,13,4.66-1.65,27.02-23.42,30-28Zm-125,12c-12.94-4.22-27.51-5.21-44-5-3.58,2.23-9.25,.81-14,2-7.95,1.99-16.41,3.84-24,7-32.3,13.48-58.46,39.87-72,72-2.33,8.67-4.67,17.33-7,26-3.44,14.09-2.27,32.51,1,45,12.58,47.99,35.93,75.83,80,92,13.06,4.79,40.24,12.57,61,8,52.43-11.54,85.87-33.9,105-78,34.62-79.83-28.41-150.23-86-169Zm38,206c-13.39,10.12-23,23.26-47,23-8-8.42-23.94,.38-39-3-17.94-4.03-33.17-8.99-46-18-18.55-13.03-34.3-33.24-42-57-12.38-38.21,7.97-81.96,26-100,11.02-11.03,27.16-21.22,43-27,6.13-2.24,14.69-.72,20-4,64.57-.49,98.52,32.06,114,80,14.9,46.12-2.19,85.74-29,106Zm-209,18c-5.74,8.78-28.73,25.8-41,28,3.78,13.68,17.97,21.87,25,33,5.55-.6,4.29-2.08,7-5-1.18-4.43-4.26-4.37-7-7-.81-1.03-.37-.25-1-2l31-31c-1.85-5.3-9.48-13.08-14-16Zm270,2c-2.32,4.7-5.3,8.64-10,11,2.28,11.06,27.21,24,34,34,2.23-1.23,9.26-13.93,10-17,.81-1.03,.37-.25,1-2-10.96-6.69-23.1-22.26-35-26Z"/>
    </g>
  </g>
  <g id="outlines" class="cls-6">
    <g id="outlines-2" data-name="outlines">
      <path class="cls-5" d="M485.48,155.06C448.84,70.25,363.4-2.45,239.48,.06c-8.15,5.17-23.67,1.53-34,4-17.47,4.17-34.52,7.44-50,14C90.3,45.66,42.57,97.19,15.48,163.06c-6.19,15.05-7.97,31.88-12,49-7.03,29.85-1.49,71.44,5,97,20.2,79.6,69.77,140.74,139,171,17.99,7.86,35.96,13.62,58,19,9.67,.67,19.33,1.33,29,2,7.44,1.68,24,3.04,33,1,23.42-5.3,47.54-4.78,68-13,69.31-27.86,119.63-73.48,149-141,24.1-55.4,25.4-136.5,1-193Zm-20,200c-24.1,55.31-74.04,97.45-132,119-17.06,6.34-37.02,8.78-55,13h-17c-8.93,2-21.82,.76-30-1-9.92-2.13-17.62,.31-27-2-17.28-4.26-34.95-9.72-49-17-12.15-6.3-24.84-10.56-36-18-37.76-25.19-71.25-70.71-90-115-3.33-7.86-3.37-15.43-6-24-7.28-23.71-13.18-63.17-6-93,4.04-16.78,6.63-35.48,13-51C56.95,101.53,105.32,51.7,171.48,27.06c12.94-4.82,27.23-6.8,41-10,8.16-1.9,21.31,1.93,28-2,120.57,.26,185.64,57.63,227,137,18.03,34.6,30.73,97.38,17,148-5.1,18.8-11.47,37.73-19,55ZM72.48,206.06c4.75,1.56,18.93,6.4,24,3,7.7-3.02,7.99-14.11,12-21,9.46-16.27,21.89-33.99,35-47,14.53-14.41,34.45-26.99,56-34,13.28-4.32,29.82-4.45,42-10,1.26-5.62,5.25-33.05,2-38-.03-12.06-7.7-12.08-18-10h-11c-10,2.35-37.29,6.9-40,15-1.89,5.65,3.64,12.63,5,16,1.73,4.31,1.39,8.77,4,12,.05,6.75-.99,6.85-4,10h-5c-2.94-1.34-16.3-29.4-19-34-16,.52-27.09,14.58-36,23,.64,7.84,12.05,24.17,17,28v4c-7.68-1.56-22.59-20.1-28-26-2.32,.23-2.82,.2-4,1-2.97,1.16-2.8,2.34-5,4,.26,10.59,18.86,28.41,26,33,.31,3.86,1.05,4.19-1,7-1,1-2,2-3,3-9.76-.64-26.87-16.97-33-23-5.57,.11-5.91,1.05-9,3,.33,2.33,.67,4.67,1,7,1.78,2.85,6.27,3.96,9,6,7.99,5.96,13.79,15.26,22,21-.2,2.6-.44,3.4-1,5-10.77-.69-14.92-8.54-22-13-4.47-2.81-9.94-3.77-14-7-11.33,1.86-18.15,26.11-22,37-1.2,3.4-5.46,11.1-4,16,2.06,6.92,17.04,6.71,24,9ZM218.48,60.06c6.63-.1,8.46,.77,12,3,.13,5.99,1.6,17.99-1,22-2.79,6.83-15.17,5.19-21,9-16.06,.42-10.84-10.32-17-19,.24-16.2,16.97-8.92,27-15Zm-73,25c9.55,1.73,9.69,13.02,15,19,.05,7.54-1.55,7.5-5,11-10.05-.71-17.23-13.13-19-22,2.87-2.68,6.15-5.24,9-8Zm-69,76c9.36,1.44,14.37,9.61,20,15-.43,8.97-5.43,15.01-10,20-8.95-.47-14.6-4.01-21-7-.55-1.52-.71-1.67-1-4-2.57-6.04,8.12-19.94,12-24Zm186-61c52.1,2.14,96.14,36.03,118,69,8.14,12.28,12.25,28.51,20,41,17.91-.18,34.05-4.12,47-10,.65-1.73,.2-.98,1-2-2.15-14.72-9.38-32.54-17-43-2.67-2.67-5.33-5.33-8-8-10.04,.19-23.7,10.5-29,16-2.05-.4-1.93-.25-3-1h-2c.52-8.54,25.36-25.03,32-31-.23-2.32-.2-2.82-1-4-1.4-3.84-3.44-3.61-6-6h-5c-8.33,7.67-16.67,15.33-25,23-7.42-.3-7.05-2.84-11-6,.63-12.26,20.21-26.3,28-33-.66-6.97-3.86-5.9-8-9-12,1.66-23.75,20.05-31,28-10.38-.27-13.64-6.79-19-12,1.41-9.76,6.48-15.39,10-23,1.73-.65,.98-.2,2-1,7.11,.53,7.62,5.26,8,12,1.82,.88,3.63,1.68,5,3,8.52-.36,8.39-4.28,13-8-.02-2.73-.04-4.58-1-6-3.31-8.32-16.86-12.01-23-18-20.2,.25-14.12,26.31-28,32-1.03,.81-.25,.37-2,1-.93-.91-1.74-1.35-3-2,.91-14.48,17.35-28.6,8-39-13.45,.63-17.96,23.52-23,33-3.86,.31-4.19,1.05-7-1-5.95-3.4,4.86-27.05,5-38-.91-.93-1.35-1.74-2-3-11.36-4.74-25.77-6.36-42-6-.93,.91-1.74,1.35-3,2-4.23,10.6-2.19,31-2,45,1.48,1.38,2.92,3.24,4,5Zm139,77c1.51-7.89,9.13-8.57,14-13,11.75,.58,10.32,13.45,16,20-.48,10.5-9.81,7.63-16,12h-7c-3.08-1.47-8.45-16.73-7-19Zm-129-109c.26-5.1,1.16-5.08,3-8,6.56-.05,11.61,.35,16,2,1.57,8.78-2.62,19.61-6,27-5.31,1.07-8.43,.22-13-1-.92-4.18-2.63-16.08,0-20Zm112,239c12.35-29.25,12.04-73.3,0-102-21.32-50.82-68.13-93.71-140-93-2.85,1.76-7.87,.03-12,1-10.06,2.35-22.79,4.06-32,8-39.01,16.71-70.09,46.36-85,87-8.02,21.86-9.76,52.99-3,76,2.34,7.98,2.04,14.88,5,22,15.74,37.85,44.48,64.78,85,78,13.54,4.42,41.34,13.49,62,9,12.6-2.74,25.89-3.5,37-8,37.09-15.03,67.59-41.52,83-78Zm-174,64c-41.19-12.49-65.55-36.73-80-76-5.23-14.22-9.79-34.45-6-52,2.81-13.02,1.7-22.25,6-33,13.04-32.63,38.88-60.38,71-74,8.12-3.45,17.54-5.76,26-8,4.89-1.3,11.19,.3,15-2,64.35-.05,110.23,36.48,128,83,10.64,27.84,12.1,64.91,0,93-18.61,43.19-53.04,64.4-104,76-20.27,4.61-42.63-2.95-56-7Zm59-219c-8.97-2.4-21.52-1.13-32-1-6.4,4.19-17.94,3.04-25,6-28.73,12.05-49.3,34.74-61,64-5.14,12.86-7.35,32.29-4,47,10.02,43.93,28.65,65.82,66,82,12.65,5.48,33.95,11.32,53,7,34.92-7.91,66.94-29.36,80-59,30.85-69.98-20.14-130.77-77-146Zm65,136c-12.97,30.94-40.76,47.75-77,56-16.36,3.72-34.56-5.12-44-10-35.58-18.39-68.42-60.39-47-113,9.08-22.32,28.13-40.5,50-50,6.69-2.9,22.69-3.78,28-7,46.02-.1,71.23,23.48,87,54,9.42,18.23,11.94,48.68,3,70Zm-246-21h2c1.42-6.12,6.07-39.31,3-44-.33-1-.67-2-1-3-13.71-3.09-29.61-6.27-46-6-1.03,.81-.25,.37-2,1-1,3-2,6-3,9-.06,7.49,.56,14.09,2,19,6.74,1.43,13.68,1.96,21,1,.67-1.25,1.09-2.07,2-3-.08-8.09-2.7-7.57-7-11l-1-1c2.69-1.01,9.36-1.85,12,0,5.1,.26,5.08,1.16,8,3,.17,7.54,1.69,22.1-3,25-6.93,4.29-20.43-1.75-29,1-1.25,.4-3.47,2.34-5,3-.76,3.68-1.41,5.39,1,8,4.87,3.79,43.25-.02,46-2Zm337-10c-2.32-.74-2.23-1.04-4-2-1.02-4.57-3.41-16.35-1-20,.72-7.56,4.15-5.03,9-8,4.07-.05,8.33,.08,11,1-1.4,3.89-5.76,6.11-9,8,.39,4.58,1.35,5.18,3,8,5.22,1.15,15.14,2.12,19-1,3.86-3.06,4.4-17.21,1-22-.46-4.5-1.29-4.27-3-7h-9c-8.24,5.29-24.4,.43-32,6-2.32,.74-2.23,1.04-4,2-.39,6.51-1.17,38.14,2,43,.33,1,.67,2,1,3,12.93,2.66,35.26,4.05,47,1,.81-4.26,.63-5.48-1-9-8.22-3.2-23.09,1.24-30-3Zm-17,22c-5.61,8.77-7.52,19.07-12,30-5.35,13.08-12.91,27.05-21,38-12.9,17.47-34.12,32.7-54,43-12.94,6.71-28.31,8.77-40,16-3.13,16.57,2.34,42.39,9,54,3.1,.07,6.31,.14,8-1h2c1.48-7.76-2.08-31.19-6-37v-8c1.84-4.02,8.37-3.44,13-5,10.36-3.49,20.32-12.08,33-12,10.15,10.33,21.91,19.66,30,32,3.1,.07,6.31,.14,8-1,3.03-1.08,2.96-.92,4-4,1.78-4.27-22.8-29.71-28-33-.6-7.23,1.44-6.89,6-11,8.45,1.31,28.16,21.6,33,28,6.54-.13,8.14-1.71,12-4-.41-8.41-22.78-27.49-29-32,.11-2.53,.12-3.71,1-5,1.51-4.62,4.88-6.97,10-8,10.3,10.06,24.78,15.86,35,26,7.16-.25,7.48-2.55,11-6-.71-6.52-32.55-28.99-39-33,.96-24.47,27.72,7.91,37,5,8.86-1.67,18.94-37.05,22-47,1.65-5.36,2.64-13.66,0-17-3.94-4.87-34.86-8.28-45-8Zm33,22c-.71,3.72-1.47,3.54-3,6-2.73-.02-4.58-.04-6-1-7.17-.5-15.6,3.33-11,10,1.48,3.87,5.36,5.43,9,7,.84,4.75,.15,6.27-2,10-10.83-.27-16.23-6.61-22-12,.59-12.24,6.68-22.21,13-29,7.03,.23,17,1.36,21,5,1.36,1.79,1.15,3.09,1,4Zm-237,96c-14.62-4.67-28.95-10.41-41-18-23.6-14.86-44.49-39.27-56-66-3.45-8.01-2.79-22.2-8-29-3.63-5.16-13.07-4.34-22-4-4.59,2.97-11.68,.5-18,2-4.55,1.08-9.5,3.1-13,5-1.07,24.83,10.31,44.09,19,62,9.67,1.86,25.27-7.91,30-14,7.66-.08,9.83,2.82,11,9-11.2,10.62-24.72,21.77-38,30,.07,6.3,1.15,6.02,4,9,13.14-1.1,32.37-17.19,40-25,8.05,.7,8.37,5.29,13,9-.23,9.01-20.01,28.51-26,33,.46,6.63,3.81,8.21,11,8,8.71-9.32,18.82-17.13,28-26,25.55,2.46-17.38,32.62-15,40,1.34,3.84,3.56,4.48,6,7,3.89-.2,5.67-.31,8-2,5.58-4.05,8.83-13.39,13-19,3.13-4.21,8.11-7.43,11-12,10.1,.46,38.35,12.35,46,17,1.54,8.9-2.02,29.02-7,36-.05,6.32,.86,7.61,3,11,5.28,.08,8.05-.41,11-2,1.98-9.12,4.13-39.83,8-46v-9c-2.32-4.92-12.31-4.18-18-6Zm-128-64c-2.32-.23-2.82-.2-4-1-2.75-1.3-3.05-3.07-5-5,.67-6.99,7.3-9.31,12-12,0-12.21-8.54-8.72-18-10-.65-1.73-.2-.98-1-2,.06-10.43,4.77-7.23,11-11,23.83-.75,14.2,10.72,23,23-1.54,10.47-11.77,12.23-18,18Zm194,71c-1.73-.65-.98-.2-2-1-3.77,.22-6.43-.25-8,2-5.39,7.7,7.89,61.98-16,44l-2-1c.14-14.44,2.72-37.6-3-47h-5c-6.13,10.56-1.88,30.94-5,45-.8,3.59-.3,11.01,1,13,.74,2.32,1.04,2.23,2,4,6.05,1.3,23.67,4.53,29,1,6.93-.03,7.25-1.49,11-4,.12-11.43,2.66-47.89-2-54v-2Zm-86,14c-4.22,3.32-5.54,12.12-8,17-6,.11-8.54-.53-10-5-1.37-2.75,1.62-10.6,4-13-.08-4.5-.63-5.46-2-8h-6c-2.63,3.98-6.58,7.87-9,12-2.73,4.65-2.88,9.98-6,14,.4,2.05,.25,1.93,1,3,1.99,5.71,30.03,17.79,36,13,6.39-5.13,5.15-17.27,10-24,.6-8.43-3.79-14.25-10-9Zm149-9c-1.03,.81-.25,.37-2,1-1.31,7.59,3.84,18.68,2,22v2c-1.73,.65-.98,.2-2,1-8.83-.34-10.44-9.82-13-16-3.76-.7-4.93-.48-9,0-.67,1.25-1.09,2.07-2,3,.63,11.52,5.5,21.08,10,29,12.62,2.32,25.46-5.61,34-11-.46-13.53-7.55-22.23-13-31h-5Z"/>
    </g>
  </g>
</svg>