<?xml version="1.0" encoding="UTF-8"?>
<svg xmlns="http://www.w3.org/2000/svg" viewBox="0 0 505.36 504.85">
  <defs>
    <style>
      .cls-1 {
        isolation: isolate;
      }

      .cls-2 {
        fill-rule: evenodd;
      }
    </style>
  </defs>
  <g id="outlines" class="cls-1">
    <g id="outlines-2" data-name="outlines">
      <path class="cls-2" d="M237.09,0C-99.98,10.64-66.18,530.78,265.73,503.84,593.68,476.33,585.85-.08,237.09,0Zm-6.89,470.86c-76.59-4.59-131.46-39.68-164.88-88.19,3.02,3.47,17.79-2.38,41.83-23.35,43.22,8.51-38.98,47.3-2.04,50.18,8.91-9.35,19.26-17.2,28.65-26.1,26.14,2.47-17.78,32.74-15.35,40.15,9.81,18.55,22.21-4.41,27.63-14.05,10.7-23.11,43.2-1.3,58.31,5.02,4.89,14.16-12.35,35.96-4.09,47.17,21.69,4.38,10.82-39.8,19.44-48.18,.31-22.66-46.12-16.62-60.36-33.12-63.18-30-50.01-109.97-88-99.36-51.6-4.46-25.43,44.77-12.28,69.25,15.59,5.38,36.44-28.73,41.96-5.01-27.3,18-38.29,32.61-35.98,36.99C-21.89,255.44,37.43,37.48,238.84,32.06c328.17-5.07,302.63,465.11-8.65,438.8ZM54.97,306.12c-3.75-10.18,3.8-9.99,10.23-13.05,24.38-.76,14.53,10.76,23.53,23.09-2.66,10.58-20.84,24.86-27.63,12.04,9.44-14.55,23.25-21.11-6.13-22.08ZM239.14,97.36c1.85-14.75,12.57-57.77-16.37-48.18-13.84-.46-45.75,4.91-52.18,15.06-1.82,13,17.07,28.01,5.11,38.14-9.64,3.88-19.29-27.56-24.55-34.13-41.67,10.52-40.06,27.53-19.44,55.21-12.25-.18-26.2-37.25-37.85-21.08-2.42,16.49,38.19,30.88,22.5,43.16-12.48,1.84-43.65-41.57-41.94-13.05,9.63,8.44,30.96,19.33,30.69,32.12-50.72-30.72-47.84-20.73-63.43,33.12,89.65,52.65,37.74-79.91,197.46-100.37Zm-23.53-37.14c17.01-3.13,13.57,16.65,11.25,25.09-2.86,6.85-15.52,5.21-21.49,9.03-16.43,.42-11.09-10.36-17.39-19.07,.24-16.26,17.36-8.95,27.62-15.06ZM80.55,196.72c-26.97-.12-26.78-20.44-10.24-35.13,19.59,4.18,25.6,23.68,10.24,35.13Zm60.36-111.41c10.2,3.1,21.09,23.88,10.23,30.11-13.82-2.23-26.86-22.66-10.23-30.11Zm240.45,84.3c14.25,40.22,31.78,52.35,69.57,29.12-13.84-47.81-16.06-61.35-60.37-36.13-1.21-10.89,34.76-25.06,31.71-35.13-14.87-23.73-32.32,33.94-48.09,11.04,.65-12.3,20.68-26.4,28.65-33.13-16.62-32.43-39.68,46.11-59.34,7.03,.97-13.84,18.63-37.59,20.46-12.05,8.3,7.41,21.74-2.84,17.39-11.04-46.3-48.89-31.61,16.85-57.3,13.04,.93-14.53,17.75-28.71,8.19-39.14-13.76,.64-18.38,23.61-23.54,33.13-31.87-8.68,37.81-53.6-47.06-48.18-39.38,76.03,85.95,47.22,119.71,121.44Zm35.8-5.01c21.49,8.96,21.3,34.33-7.16,32.12-11.4-11.73-7.85-26.8,7.16-32.12ZM273.92,60.22c27.65-7.76,17.15,38.44-3.07,28.1-2.04-7.82-2.18-22.01,3.07-28.1Zm-32.02,47.2c-159.28,1.92-204.12,237.63-45.14,282.63,224.62,74.81,292.59-277.63,45.14-282.63Zm-34.48,264.95c-136.54-35.19-102.95-241.21,32.73-245.9,210.65,2.05,161.85,304.22-32.73,245.9Zm26.98-220.23c-112.29,10.06-132.02,165.43-25.79,198.61,179.64,55.31,205.4-211.13,25.79-198.61Zm20.65,185.87c-107.86,7.24-126.76-155.88-12.42-166.12,112.29-1.13,122.22,153.21,12.42,166.12ZM39.62,214.79c-27.74,32.65,40.33,42.46,13.3,16.06-2.81-2.59,9.68-2.63,11.26-1,13.82-1.49,8.93,24.57,5.11,28.1-9.03,5.05-25.59-4.44-34.79,4.02-7.56,18.33,44.04,6.43,48.09,6.02,16.74-40.59,4.45-55.7-42.97-53.2Zm383.68,41.15c-2.39-10.25-5.28-26.31,8.18-28.1,13.5-1.44,12.12,4.34,2.05,9.03-.68,11.84,16.11,10.32,22.51,7.03,6.43-7.99,4.25-33.98-11.26-29.11-46.62,5.35-39.53,8.42-34.79,51.19,5.66,7.21,57.68,12.5,48.09-5.03-10.55-3.34-26.23,1.95-34.79-5.02Zm-13.3,24.09c-17.93,63.19-65.02,110.07-129.93,127.46-11.03,45.31,35.46,86.07,13.3,16.06-2.11-9.92,3.85-11.8,13.3-13.04,27.03-20.37,47.93-5.52,64.46,20.06,31.29,2.29-8.45-31.18-16.37-38.14,1.05-28.03,33.74,10.14,39.9,17.06,30.85-.22-10.34-30.02-17.39-36.13,4.06-28.95,34.62,5.7,47.07,13.05,32.36-3.58-21.55-32.88-28.65-39.14,.98-24.56,28.36,7.94,37.86,5.02,11.28-6.97,27.86-49.51,22.5-64.24-4.03-4.89-35.67-8.31-46.04-8.03Zm30.69,28.1c-7.62-1.73-23.16-1-17.39,9.03,33.37,34.04-43.54,10.88-2.05-24.09,10.5-.05,30.28,3.02,19.44,15.06Zm-198.49,142.52c-7.47-10.75,7.39-48.51-10.23-48.18-4.25,15.2-8.26,45.81-2.05,62.22,52.64,15.44,44.13-25.88,38.88-57.21-25.6-20.15,3.67,65.66-26.6,43.16Zm-69.57-14.05c-13.19,1.83-12.12-11.17-6.14-18.06,.14-7.3-2.04-8.77-8.18-8.03-6.23,8.02-15.7,19.37-14.33,29.1,20.29,17.78,41.66,21.87,47.07-11.04-1.13-23.43-16.99-3.35-18.42,8.03Zm160.63-26.09c-7.49,6.38,5.94,22.95-2.05,26.1-9.04-.35-10.68-9.85-13.3-16.06-21.67-4.82-5.23,24.89-1.03,32.11,34.81,6.57,44.2-32.3,16.37-42.15Z"/>
    </g>
  </g>
</svg>