<?xml version="1.0" encoding="UTF-8"?>
<svg xmlns="http://www.w3.org/2000/svg" viewBox="0 0 503.18 503.99">
  <defs>
    <style>
      .cls-1 {
        isolation: isolate;
      }

      .cls-2 {
        fill-rule: evenodd;
      }
    </style>
  </defs>
  <g id="outlines" class="cls-1">
    <g id="outlines-2" data-name="outlines">
      <path class="cls-2" d="M485.48,155.06C448.84,70.25,363.4-2.45,239.48,.06c-8.15,5.17-23.67,1.53-34,4-17.47,4.17-34.52,7.44-50,14C90.3,45.66,42.57,97.19,15.48,163.06c-6.19,15.05-7.97,31.88-12,49-7.03,29.85-1.49,71.44,5,97,20.2,79.6,69.77,140.74,139,171,17.99,7.86,35.96,13.62,58,19,9.67,.67,19.33,1.33,29,2,7.44,1.68,24,3.04,33,1,23.42-5.3,47.54-4.78,68-13,69.31-27.86,119.63-73.48,149-141,24.1-55.4,25.4-136.5,1-193Zm-20,200c-24.1,55.31-74.04,97.45-132,119-17.06,6.34-37.02,8.78-55,13h-17c-8.93,2-21.82,.76-30-1-9.92-2.13-17.62,.31-27-2-17.28-4.26-34.95-9.72-49-17-12.15-6.3-24.84-10.56-36-18-37.76-25.19-71.25-70.71-90-115-3.33-7.86-3.37-15.43-6-24-7.28-23.71-13.18-63.17-6-93,4.04-16.78,6.63-35.48,13-51C56.95,101.53,105.32,51.7,171.48,27.06c12.94-4.82,27.23-6.8,41-10,8.16-1.9,21.31,1.93,28-2,120.57,.26,185.64,57.63,227,137,18.03,34.6,30.73,97.38,17,148-5.1,18.8-11.47,37.73-19,55ZM72.48,206.06c4.75,1.56,18.93,6.4,24,3,7.7-3.02,7.99-14.11,12-21,9.46-16.27,21.89-33.99,35-47,14.53-14.41,34.45-26.99,56-34,13.28-4.32,29.82-4.45,42-10,1.26-5.62,5.25-33.05,2-38-.03-12.06-7.7-12.08-18-10h-11c-10,2.35-37.29,6.9-40,15-1.89,5.65,3.64,12.63,5,16,1.73,4.31,1.39,8.77,4,12,.05,6.75-.99,6.85-4,10h-5c-2.94-1.34-16.3-29.4-19-34-16,.52-27.09,14.58-36,23,.64,7.84,12.05,24.17,17,28v4c-7.68-1.56-22.59-20.1-28-26-2.32,.23-2.82,.2-4,1-2.97,1.16-2.8,2.34-5,4,.26,10.59,18.86,28.41,26,33,.31,3.86,1.05,4.19-1,7-1,1-2,2-3,3-9.76-.64-26.87-16.97-33-23-5.57,.11-5.91,1.05-9,3,.33,2.33,.67,4.67,1,7,1.78,2.85,6.27,3.96,9,6,7.99,5.96,13.79,15.26,22,21-.2,2.6-.44,3.4-1,5-10.77-.69-14.92-8.54-22-13-4.47-2.81-9.94-3.77-14-7-11.33,1.86-18.15,26.11-22,37-1.2,3.4-5.46,11.1-4,16,2.06,6.92,17.04,6.71,24,9ZM218.48,60.06c6.63-.1,8.46,.77,12,3,.13,5.99,1.6,17.99-1,22-2.79,6.83-15.17,5.19-21,9-16.06,.42-10.84-10.32-17-19,.24-16.2,16.97-8.92,27-15Zm-73,25c9.55,1.73,9.69,13.02,15,19,.05,7.54-1.55,7.5-5,11-10.05-.71-17.23-13.13-19-22,2.87-2.68,6.15-5.24,9-8Zm-69,76c9.36,1.44,14.37,9.61,20,15-.43,8.97-5.43,15.01-10,20-8.95-.47-14.6-4.01-21-7-.55-1.52-.71-1.67-1-4-2.57-6.04,8.12-19.94,12-24Zm186-61c52.1,2.14,96.14,36.03,118,69,8.14,12.28,12.25,28.51,20,41,17.91-.18,34.05-4.12,47-10,.65-1.73,.2-.98,1-2-2.15-14.72-9.38-32.54-17-43-2.67-2.67-5.33-5.33-8-8-10.04,.19-23.7,10.5-29,16-2.05-.4-1.93-.25-3-1h-2c.52-8.54,25.36-25.03,32-31-.23-2.32-.2-2.82-1-4-1.4-3.84-3.44-3.61-6-6h-5c-8.33,7.67-16.67,15.33-25,23-7.42-.3-7.05-2.84-11-6,.63-12.26,20.21-26.3,28-33-.66-6.97-3.86-5.9-8-9-12,1.66-23.75,20.05-31,28-10.38-.27-13.64-6.79-19-12,1.41-9.76,6.48-15.39,10-23,1.73-.65,.98-.2,2-1,7.11,.53,7.62,5.26,8,12,1.82,.88,3.63,1.68,5,3,8.52-.36,8.39-4.28,13-8-.02-2.73-.04-4.58-1-6-3.31-8.32-16.86-12.01-23-18-20.2,.25-14.12,26.31-28,32-1.03,.81-.25,.37-2,1-.93-.91-1.74-1.35-3-2,.91-14.48,17.35-28.6,8-39-13.45,.63-17.96,23.52-23,33-3.86,.31-4.19,1.05-7-1-5.95-3.4,4.86-27.05,5-38-.91-.93-1.35-1.74-2-3-11.36-4.74-25.77-6.36-42-6-.93,.91-1.74,1.35-3,2-4.23,10.6-2.19,31-2,45,1.48,1.38,2.92,3.24,4,5Zm139,77c1.51-7.89,9.13-8.57,14-13,11.75,.58,10.32,13.45,16,20-.48,10.5-9.81,7.63-16,12h-7c-3.08-1.47-8.45-16.73-7-19Zm-129-109c.26-5.1,1.16-5.08,3-8,6.56-.05,11.61,.35,16,2,1.57,8.78-2.62,19.61-6,27-5.31,1.07-8.43,.22-13-1-.92-4.18-2.63-16.08,0-20Zm112,239c12.35-29.25,12.04-73.3,0-102-21.32-50.82-68.13-93.71-140-93-2.85,1.76-7.87,.03-12,1-10.06,2.35-22.79,4.06-32,8-39.01,16.71-70.09,46.36-85,87-8.02,21.86-9.76,52.99-3,76,2.34,7.98,2.04,14.88,5,22,15.74,37.85,44.48,64.78,85,78,13.54,4.42,41.34,13.49,62,9,12.6-2.74,25.89-3.5,37-8,37.09-15.03,67.59-41.52,83-78Zm-174,64c-41.19-12.49-65.55-36.73-80-76-5.23-14.22-9.79-34.45-6-52,2.81-13.02,1.7-22.25,6-33,13.04-32.63,38.88-60.38,71-74,8.12-3.45,17.54-5.76,26-8,4.89-1.3,11.19,.3,15-2,64.35-.05,110.23,36.48,128,83,10.64,27.84,12.1,64.91,0,93-18.61,43.19-53.04,64.4-104,76-20.27,4.61-42.63-2.95-56-7Zm59-219c-8.97-2.4-21.52-1.13-32-1-6.4,4.19-17.94,3.04-25,6-28.73,12.05-49.3,34.74-61,64-5.14,12.86-7.35,32.29-4,47,10.02,43.93,28.65,65.82,66,82,12.65,5.48,33.95,11.32,53,7,34.92-7.91,66.94-29.36,80-59,30.85-69.98-20.14-130.77-77-146Zm65,136c-12.97,30.94-40.76,47.75-77,56-16.36,3.72-34.56-5.12-44-10-35.58-18.39-68.42-60.39-47-113,9.08-22.32,28.13-40.5,50-50,6.69-2.9,22.69-3.78,28-7,46.02-.1,71.23,23.48,87,54,9.42,18.23,11.94,48.68,3,70Zm-246-21h2c1.42-6.12,6.07-39.31,3-44-.33-1-.67-2-1-3-13.71-3.09-29.61-6.27-46-6-1.03,.81-.25,.37-2,1-1,3-2,6-3,9-.06,7.49,.56,14.09,2,19,6.74,1.43,13.68,1.96,21,1,.67-1.25,1.09-2.07,2-3-.08-8.09-2.7-7.57-7-11l-1-1c2.69-1.01,9.36-1.85,12,0,5.1,.26,5.08,1.16,8,3,.17,7.54,1.69,22.1-3,25-6.93,4.29-20.43-1.75-29,1-1.25,.4-3.47,2.34-5,3-.76,3.68-1.41,5.39,1,8,4.87,3.79,43.25-.02,46-2Zm337-10c-2.32-.74-2.23-1.04-4-2-1.02-4.57-3.41-16.35-1-20,.72-7.56,4.15-5.03,9-8,4.07-.05,8.33,.08,11,1-1.4,3.89-5.76,6.11-9,8,.39,4.58,1.35,5.18,3,8,5.22,1.15,15.14,2.12,19-1,3.86-3.06,4.4-17.21,1-22-.46-4.5-1.29-4.27-3-7h-9c-8.24,5.29-24.4,.43-32,6-2.32,.74-2.23,1.04-4,2-.39,6.51-1.17,38.14,2,43,.33,1,.67,2,1,3,12.93,2.66,35.26,4.05,47,1,.81-4.26,.63-5.48-1-9-8.22-3.2-23.09,1.24-30-3Zm-17,22c-5.61,8.77-7.52,19.07-12,30-5.35,13.08-12.91,27.05-21,38-12.9,17.47-34.12,32.7-54,43-12.94,6.71-28.31,8.77-40,16-3.13,16.57,2.34,42.39,9,54,3.1,.07,6.31,.14,8-1h2c1.48-7.76-2.08-31.19-6-37v-8c1.84-4.02,8.37-3.44,13-5,10.36-3.49,20.32-12.08,33-12,10.15,10.33,21.91,19.66,30,32,3.1,.07,6.31,.14,8-1,3.03-1.08,2.96-.92,4-4,1.78-4.27-22.8-29.71-28-33-.6-7.23,1.44-6.89,6-11,8.45,1.31,28.16,21.6,33,28,6.54-.13,8.14-1.71,12-4-.41-8.41-22.78-27.49-29-32,.11-2.53,.12-3.71,1-5,1.51-4.62,4.88-6.97,10-8,10.3,10.06,24.78,15.86,35,26,7.16-.25,7.48-2.55,11-6-.71-6.52-32.55-28.99-39-33,.96-24.47,27.72,7.91,37,5,8.86-1.67,18.94-37.05,22-47,1.65-5.36,2.64-13.66,0-17-3.94-4.87-34.86-8.28-45-8Zm33,22c-.71,3.72-1.47,3.54-3,6-2.73-.02-4.58-.04-6-1-7.17-.5-15.6,3.33-11,10,1.48,3.87,5.36,5.43,9,7,.84,4.75,.15,6.27-2,10-10.83-.27-16.23-6.61-22-12,.59-12.24,6.68-22.21,13-29,7.03,.23,17,1.36,21,5,1.36,1.79,1.15,3.09,1,4Zm-237,96c-14.62-4.67-28.95-10.41-41-18-23.6-14.86-44.49-39.27-56-66-3.45-8.01-2.79-22.2-8-29-3.63-5.16-13.07-4.34-22-4-4.59,2.97-11.68,.5-18,2-4.55,1.08-9.5,3.1-13,5-1.07,24.83,10.31,44.09,19,62,9.67,1.86,25.27-7.91,30-14,7.66-.08,9.83,2.82,11,9-11.2,10.62-24.72,21.77-38,30,.07,6.3,1.15,6.02,4,9,13.14-1.1,32.37-17.19,40-25,8.05,.7,8.37,5.29,13,9-.23,9.01-20.01,28.51-26,33,.46,6.63,3.81,8.21,11,8,8.71-9.32,18.82-17.13,28-26,25.55,2.46-17.38,32.62-15,40,1.34,3.84,3.56,4.48,6,7,3.89-.2,5.67-.31,8-2,5.58-4.05,8.83-13.39,13-19,3.13-4.21,8.11-7.43,11-12,10.1,.46,38.35,12.35,46,17,1.54,8.9-2.02,29.02-7,36-.05,6.32,.86,7.61,3,11,5.28,.08,8.05-.41,11-2,1.98-9.12,4.13-39.83,8-46v-9c-2.32-4.92-12.31-4.18-18-6Zm-128-64c-2.32-.23-2.82-.2-4-1-2.75-1.3-3.05-3.07-5-5,.67-6.99,7.3-9.31,12-12,0-12.21-8.54-8.72-18-10-.65-1.73-.2-.98-1-2,.06-10.43,4.77-7.23,11-11,23.83-.75,14.2,10.72,23,23-1.54,10.47-11.77,12.23-18,18Zm194,71c-1.73-.65-.98-.2-2-1-3.77,.22-6.43-.25-8,2-5.39,7.7,7.89,61.98-16,44l-2-1c.14-14.44,2.72-37.6-3-47h-5c-6.13,10.56-1.88,30.94-5,45-.8,3.59-.3,11.01,1,13,.74,2.32,1.04,2.23,2,4,6.05,1.3,23.67,4.53,29,1,6.93-.03,7.25-1.49,11-4,.12-11.43,2.66-47.89-2-54v-2Zm-86,14c-4.22,3.32-5.54,12.12-8,17-6,.11-8.54-.53-10-5-1.37-2.75,1.62-10.6,4-13-.08-4.5-.63-5.46-2-8h-6c-2.63,3.98-6.58,7.87-9,12-2.73,4.65-2.88,9.98-6,14,.4,2.05,.25,1.93,1,3,1.99,5.71,30.03,17.79,36,13,6.39-5.13,5.15-17.27,10-24,.6-8.43-3.79-14.25-10-9Zm149-9c-1.03,.81-.25,.37-2,1-1.31,7.59,3.84,18.68,2,22v2c-1.73,.65-.98,.2-2,1-8.83-.34-10.44-9.82-13-16-3.76-.7-4.93-.48-9,0-.67,1.25-1.09,2.07-2,3,.63,11.52,5.5,21.08,10,29,12.62,2.32,25.46-5.61,34-11-.46-13.53-7.55-22.23-13-31h-5Z"/>
    </g>
  </g>
</svg>