<?xml version="1.0" encoding="UTF-8"?>
<svg id="Layer_2" data-name="Layer 2" xmlns="http://www.w3.org/2000/svg" viewBox="0 0 261.53 513.83">
  <defs>
    <style>
      .cls-1 {
        fill: #f4d27c;
      }

      .cls-2 {
        fill: #f6f6c9;
      }

      .cls-3 {
        fill: #f2e18f;
      }

      .cls-4 {
        fill: #efd368;
      }

      .cls-5 {
        fill: #efc96b;
      }

      .cls-6 {
        fill: #ecc567;
      }

      .cls-7 {
        fill: #e9bb69;
      }

      .cls-8 {
        fill: #f5ecb9;
      }

      .cls-9 {
        fill: #e7be5a;
      }

      .cls-10 {
        fill: #e9da9e;
      }

      .cls-11 {
        fill: #e9ab50;
      }

      .cls-12 {
        fill: #ebc97c;
      }

      .cls-13 {
        fill: #eed073;
      }

      .cls-14 {
        fill: #eec368;
      }

      .cls-15 {
        fill: #e8e5cb;
      }

      .cls-16 {
        fill: #f2c665;
      }

      .cls-17 {
        fill: #f2c977;
      }

      .cls-18 {
        fill: #f2d28d;
      }

      .cls-19 {
        fill: #efbf62;
      }

      .cls-20 {
        fill: #efc76b;
      }

      .cls-21 {
        fill: #e5c569;
      }

      .cls-22 {
        fill: #e68441;
      }

      .cls-23 {
        fill: #e78c36;
      }

      .cls-24 {
        fill: #e3b361;
      }

      .cls-25 {
        fill: #f0cb70;
      }

      .cls-26 {
        fill: #924530;
      }

      .cls-27 {
        fill: #6b5235;
      }

      .cls-28 {
        fill: #744d33;
      }

      .cls-29 {
        fill: #65432e;
      }

      .cls-30 {
        fill: #99773e;
      }

      .cls-31 {
        fill: #6d3d4a;
      }

      .cls-32 {
        fill: #9d5539;
      }

      .cls-33 {
        fill: #935028;
      }

      .cls-34 {
        fill: #935651;
      }

      .cls-35 {
        fill: #85402c;
      }

      .cls-36 {
        fill: #9f905b;
      }

      .cls-37 {
        fill: #856d3c;
      }

      .cls-38 {
        fill: #86653b;
      }

      .cls-39 {
        fill: #b6a07c;
      }

      .cls-40 {
        fill: #b5af5f;
      }

      .cls-41 {
        fill: #b7b699;
      }

      .cls-42 {
        fill: #b99651;
      }

      .cls-43 {
        fill: #9d5645;
      }

      .cls-44 {
        fill: #c39953;
      }

      .cls-45 {
        fill: #8d4a3d;
      }

      .cls-46 {
        fill: #b8923f;
      }

      .cls-47 {
        fill: #865b2f;
      }

      .cls-48 {
        fill: #cfa049;
      }

      .cls-49 {
        fill: #b06c45;
      }

      .cls-50 {
        fill: #a8834a;
      }

      .cls-51 {
        fill: #a64f45;
      }

      .cls-52 {
        fill: #bc724f;
      }

      .cls-53 {
        fill: #ad6043;
      }

      .cls-54 {
        fill: #ae7d3f;
      }

      .cls-55 {
        fill: #b24d3d;
      }

      .cls-56 {
        fill: #b0975a;
      }

      .cls-57 {
        fill: #ad9750;
      }

      .cls-58 {
        fill: #d8ad55;
      }

      .cls-59 {
        fill: #c1a256;
      }

      .cls-60 {
        fill: #bc9e71;
      }

      .cls-61 {
        fill: #c19a5e;
      }

      .cls-62 {
        fill: #be774d;
      }

      .cls-63 {
        fill: #bfb869;
      }

      .cls-64 {
        fill: #c58952;
      }

      .cls-65 {
        fill: #c73b1e;
      }

      .cls-66 {
        fill: #c6b459;
      }

      .cls-67 {
        fill: #c5ac77;
      }

      .cls-68 {
        fill: #dda447;
      }

      .cls-69 {
        fill: #d2c59d;
      }

      .cls-70 {
        fill: #d2aa5a;
      }

      .cls-71 {
        fill: #dfb56a;
      }

      .cls-72 {
        fill: #c5713a;
      }

      .cls-73 {
        fill: #dda148;
      }

      .cls-74 {
        fill: #dc9859;
      }

      .cls-75 {
        fill: #dabc5f;
      }

      .cls-76 {
        fill: #db7e44;
      }

      .cls-77 {
        fill: #d9e2cc;
      }

      .cls-78 {
        fill: #b13419;
      }

      .cls-79 {
        fill: #ad7b4b;
      }

      .cls-80 {
        fill: #d86c2d;
      }

      .cls-81 {
        fill: #d4a550;
      }

      .cls-82 {
        fill: #c69542;
      }

      .cls-83 {
        fill: #dbb353;
      }

      .cls-84 {
        fill: #e2d6b8;
      }

      .cls-85 {
        fill: #e2d5af;
      }

      .cls-86 {
        fill: #e1a967;
      }

      .cls-87 {
        fill: #e1bc5d;
      }

      .cls-88 {
        fill: #d79e45;
      }

      .cls-89 {
        fill: #a88e4a;
      }

      .cls-90 {
        fill: #a9603e;
      }

      .cls-91 {
        fill: #22c9c5;
      }

      .cls-92 {
        fill: #0f1314;
      }

      .cls-93 {
        fill: #1c0105;
      }

      .cls-94 {
        fill: #3e312e;
      }

      .cls-95 {
        fill: #958366;
      }

      .cls-96 {
        fill: #71511c;
      }

      .cls-97 {
        fill: #a3783c;
      }

      .cls-98 {
        fill: #968e54;
      }

      .cls-99 {
        fill: #543e4d;
      }

      .cls-100 {
        fill: #9a8c4c;
      }

      .cls-101 {
        fill: #9a9657;
      }

      .cls-102 {
        fill: #9b6937;
      }

      .cls-103 {
        fill: #653d26;
      }

      .cls-104 {
        fill: #5b2e1e;
      }

      .cls-105 {
        fill: #592d2b;
      }

      .cls-106 {
        fill: #2a1c18;
      }

      .cls-107 {
        fill: #653538;
      }

      .cls-108 {
        fill: #492d2a;
      }

      .cls-109 {
        fill: #382119;
      }

      .cls-110 {
        fill: #591e18;
      }

      .cls-111 {
        fill: #2e180f;
      }

      .cls-112 {
        fill: #583934;
      }

      .cls-113 {
        fill: #613c35;
      }

      .cls-114 {
        fill: #472d22;
      }

      .cls-115 {
        fill: #5d4825;
      }

      .cls-116 {
        fill: #7a6040;
      }

      .cls-117 {
        fill: #722018;
      }

      .cls-118 {
        fill: #513314;
      }

      .cls-119 {
        fill: #834734;
      }

      .cls-120 {
        fill: #783d37;
      }

      .cls-121 {
        fill: #261110;
      }

      .cls-122 {
        fill: #282a2b;
      }

      .cls-123 {
        fill: #55362b;
      }
    </style>
  </defs>
  <g id="Layer_1-2" data-name="Layer 1">
    <path class="cls-5" d="M122.5,19.1c2.4-6.1,4.7-12.2,7.1-18.6,.83-.05,5.79-1.51,4.7,.8-.52,9.44-.82,18.81-2.9,27.8-3.4,.4-6.5,.7-9.5,.6,.2-3.8,.4-7.2,.6-10.6Z"/>
    <path class="cls-57" d="M202.3,254c10.41,8.44,19.67,18.66,29.2,28.1-6.79,.27-8.78,6.75-13.1,10.7-2.7-3-4.6-6.6-9.3-6.2-3.5-6.1-7.6-6.2-11.7-.5-1.4,.4-2.5,.7-3.8,.6-2.2-6.3-7.2-2.9-10.8-4,6.26-7-7.77-15.54-11-22.1,.6-1.4,1.2-2.4,2.2-3.5,9.49-.82,19.65,1.41,28.3-3.1Z"/>
    <path class="cls-122" d="M187.7,216.77c5.55,.09,6.89,5.93,1.1,7.9-19.63-1.69-40.32-.25-59.9-.7-5.9,2.41-12.59,.73-18.4-1.1,.1-.8,.1-1.2,.6-1.8,24.28-.31,48.93,.18,73.1-.4,2.4-.1,4.9-.3,3.5-3.9Z"/>
    <path class="cls-26" d="M100.8,146.7c0-1.3,0-2.7,.5-4,18.26,6.24,39.14,5.66,58.3,6.5,.6,.8,1.2,1.7,1.5,2.9-19.77,3.75-41.06-1.17-60.3-5.4Z"/>
    <path class="cls-30" d="M139.4,10.1c4.7,16.38,7.71,32.24,9.1,49.5-1,.5-1.9,.5-2.8,0-6.8-15.34-8.01-33.08-6.3-49.5Z"/>
    <path class="cls-100" d="M152.7,153.8c2.7-.5,5.3-1,8.4-1.6,.38,9.18,5.73,19.83-.6,27.8-.7,0-1.1,.1-1.7-.2-.5-.9-.8-1.6-.8-2.4,1.4-1,2.4-1.9,3.3-2.8-3.1-2.85-7.74-2.72-11.4-3.4,9.67,.09,1.67-11.83,2.8-17.4Z"/>
    <path class="cls-100" d="M150.5,63c.9,7.6,1.7,15.2,1.9,23-2.8,0-4.9-.1-7.1-.7-.7-6.9-1.3-13.4-1.6-20.1,2.5-.9,4.6-1.5,6.8-2.2Z"/>
    <path class="cls-100" d="M151.7,91.2c2.39,6.71,8.07,13.47,4.2,20.9-.4,.1-.5,0-.5-.4-3.4-3.59-8.49-2.76-12.7-3.9,2.1-.5,3.8-.7,5.8-1-.22-5.37-3.4-11.58-.6-16.6,1.5,.3,2.7,.6,3.8,1Z"/>
    <path class="cls-89" d="M155.7,112.2c2.7,5.2,4.8,10.4,2.5,16.8-.8,.3-1.2,.2-2-.1-7.5-1.5-7.4-1.5-7.6-9.1,0-2.2-.2-4.3,.2-6.5,2.5-.4,4.6-.8,6.6-1.2,0-.1,.2,0,.3,.1Z"/>
    <path class="cls-100" d="M159.6,148.6c-7.8,.3-15.6,.1-23.3-.3,5.07-.76,11.55,.87,16.4-1.8-1.5-3,1.3-8-4.2-9.7,0-1.8,0-3.1,.5-4.6,2.5-.1,4.5-.2,6.5-.3,3.6,4.9,4.7,10.4,4.1,16.7Z"/>
    <path class="cls-92" d="M168.4,214.67c3.8,.4,7.6,.7,11.4,1.4-9.07,1.03-18.65,1.71-27.9,1.3-19.19-.62-38.4,.61-57.4-1.2-.1-.5-.2-.6-.1-.9,24.44-1.34,49.7,2.01,74-.6Z"/>
    <path class="cls-104" d="M155.5,132c-12.54-.03-26.64,.09-38.6-3.2,13.48-2.97,27.88-.07,41.2,.5,.12,.68-2.1,2.23-2.6,2.7,.1,.1,0,0,0,0Z"/>
    <path class="cls-27" d="M168.5,214.7c-11.23,2.35-21.64,1.29-33.3,1.1-.5-.4-.5-.6-.3-.9,.6-.2,.9-.2,1.6-.93h1.5c7.84,1.89,17.63,.55,25.8,1,1.58-3.01-.67-7.4-.1-10.47,.1-3.2-1.2-4.5-3.9-4.8,.7-1.6,1.2-3.1,2.1-4.5,2.1-.1,3.8-.1,5.6-.1,.3,.9,1.2,2.1,.9,2.5-3.9,5.6-.5,11.1,.1,17.1Z"/>
    <path class="cls-35" d="M152,91c-9.6-1.78-20.08-1.65-29.4-3.8,9.24-4.35,19.73-1.19,29.7-1,.2,1.6,.1,3.1-.3,4.8Z"/>
    <path class="cls-49" d="M160.6,218c8.72-.15,17.85-2.08,26.8-1.4,1.7,3.9-.8,4.1-3.2,4.1-7.2,.2-14.5,.2-22.2,0-.8-1.1-1.1-1.9-1.4-2.7Z"/>
    <path class="cls-103" d="M202.4,253.7c-1.7,1-3.4,1.8-5.3,2.1-.3-2-.2-4.8-.5-4.8-2.8-.6-5.8-.6-8.7-.8-.1,.6-.2,1.1-.2,1.7,1.8,.6,3.5,1.2,5,1.7-5.11,4.59-13.46,1.52-19.4,1.5-1-.1-1.8-1.1-2.3-1.7,4.94-.37,9.25,.07,14,.8-.6-2-.9-3.4-.9-4.9,4.54-.04,8.78-.87,13.1-2.1,2,1.7,3.6,3.3,5.3,5-.1,.3-.1,.8-.1,1.5Z"/>
    <path class="cls-112" d="M186.5,224.3c.6,.2,1.1,.4,2,.6,1.1,5.6,2,11.1,2.6,17-2,.6-3.9,.7-5.7,.5-.2-6-.4-11.6-.4-17.3,.6-.3,1-.6,1.5-.8Z"/>
    <path class="cls-30" d="M167.3,194.67c-1.38,.07-5.16,.95-6.9-.2-1.43-3.72-3.52-7.14-4.9-10.7,1.2-1.4,2.2-2.6,3.3-3.7,.17,.03,2.12-.14,2.5-.1,1.91,5.11,1.57,11,6,14.7Z"/>
    <path class="cls-106" d="M185.4,242.7c6.74-1.21,15.6,1.39,17.1,9-10.2-11.82-27.98-5.19-41.5-7.9,8.02-1.68,16.29-1.08,24.4-1.1Z"/>
    <path class="cls-89" d="M139.4,9.8c-.4,1.8-.7,3.3-1.3,5-1.7-.1-3.1-.4-4.4-.7,.1-4,.2-8,.5-12.4,1.9,2.3,3.6,5,5.2,8.1Z"/>
    <path class="cls-35" d="M150.5,62.57c-2.2,1-4.3,1.6-7,2.3-.94-.36-.93-1.73-1.8-1.9-1.21-1.49-3.76-2.19-4.7-3,3.89-.04,7.7,.06,11.5,0,.8,.7,1.4,1.5,2,2.6Z"/>
    <path class="cls-100" d="M155.8,132c-.1-.2,.1-.5,.6-.9,.2,.2-.1,.5-.6,.9Z"/>
    <path class="cls-44" d="M161.4,179.8c-.1,.3-.4,.2-.6,.2-.1-.3,.1-.5,.4-.9,.2,.1,.3,.3,.2,.7Z"/>
    <path class="cls-68" d="M61.4,467c-11.6-8.1-18.4-20.4-27.2-31-1.7-2.1-2.7-4.4-1.1-7.5,.09-5.08-5.89-9.37-8.2-14.2,4.92-3.04,11.12-2.8,16.4-3.1,17.48,.39,35.74-.24,53.3,1.7,23.5-.3,46.9-.6,70.4-1,7.1-.13,14.01-2.15,20.6,1.5-7.23,9.83-14.96,18.4-21.4,28.5-7.65-1.08-14.41-3.25-22-4.5-16.8-3.8-33.1-1.4-49.4,.7-5.5,.7-6.2,2.8-3.4,8-11.28,3.01-21.43,6.8-24.1,19.7-1.6,.6-2.7,.9-3.9,1.2Z"/>
    <path class="cls-89" d="M164.6,442.1c5.78-10.47,13.93-18.64,21.4-28.6,11.42-2.61,23.37-1.73,34.6-.9-.7,3.2-1.2,6-1.8,9.2,.4,5.6,4.5,2.6,6.9,3.9-2.75,11.27-12.71,12.6-7.6,26.5-5.3,4.9-10.5,9.8-16.3,14.5-1.26-23.86-21.9-15.53-37.2-24.6Z"/>
    <path class="cls-6" d="M171.8,261c3.45,6.47,17.47,14.73,10.8,22.1,.04,3.03-.8,6.38-.9,9.1-.2,4.7-1.1,5.3-5.8,4.1-6.8,1.38-14.54-.52-21.2-1.7-.09-6.55-2.53-12.93-10-11.6-.1-.6-.1-.8,.3-1,7.32,1.25,7.22-5.66,3.2-9.4-17.82-13.7-56.63-9.68-78.6-9-23.12,1.3-21.46-2.98-34.2,18.4-.8,0-1.2-.1-1.7-.6,.4-1.95-.42-6.54,.8-7.1,8.62-6.22,15.17-14.3,23.3-21.1,5,4.4,10.2,5.4,16.4,4.1,32.42,6.53,64.81-.26,97.6,3.7Z"/>
    <path class="cls-19" d="M87.84,512.8c-9.83-.07-16.64,3.09-18.6-8.9-1-3.6-1.6-7.2-2-11.2,13.5-.1,26.6,.1,39.6,.2,1.3,0,2.6-1.1,3.9-2.1-1-3.5-2-6.6-2.5-9.7,7.93-.5,16.46-1.07,24.23,.21l.76,1.33c-.83,2.51-1.48,4.42-2.39,6.47-.7,.4-1.1,.8-1.9,.9-19.11-6.05-8.52,16.22-41.1,22.8Z"/>
    <path class="cls-73" d="M11.9,390.27c-6.02-19.31-11.62-37.57-10-58.3,35.12-2.24,70.59-.5,105.4-.4-28.18,1.08-56.4,.06-84.6,.4q-8,0-8.9,8.4c-.3,5.6-.6,10.6-1.1,16-1.7,3.8,.7,5.6,3.2,7.8,1.4,6.3,2.3,12.4,3.9,18.3,2.46,5.96-3.04,7.62-7.9,7.8Z"/>
    <path class="cls-58" d="M183.6,512.9c-25.14,1.28-53.79,.41-78.7-.2,8.06-6.69,16.12-13.34,23.7-20.3,4.64,5.53,10.83,9.4,16.9,13,1,1.4,2,3.3,3.4,3.6,11.09,2.81,23.25,3.42,34.7,3.9Z"/>
    <path class="cls-97" d="M178.7,448.1c12.98-2.43,27.24,8.95,21.4,22.6-7.8-.1-15.1-.4-22.6-1-5.4-6.2-5.4-12.9-2.7-20.1,1.5-.5,2.7-1,3.9-1.5Z"/>
    <path class="cls-4" d="M97.6,188c.13-7.23-1.11-13.83,2.4-20.6,6.5,1.4,12.5,3.1,18.6,5.3-.51,6.63,2.27,13.16-3.7,17.6-6-.7-11.6-1.5-17.3-2.3Z"/>
    <path class="cls-118" d="M21.8,409.1c-.3-.5-.7-1-.6-1.8,48.86-.67,97.32-.96,146.1,1.7-48.49,.7-97.22,2.28-145.5,.1Z"/>
    <path class="cls-16" d="M101.14,147.1c6.7,1,13.4,2.5,20.2,4.4-.5,5.6-1.6,10.8,2.2,15.6-.9,.6-1.7,1.2-2.9,1.8-7.1-1.6-13.9-3.2-20.7-4.9,0,0,0,.1,0-.1-.3-.2-.5-.3-.7-.3,.6-5.3,1.2-10.6,1.9-16.5Z"/>
    <path class="cls-13" d="M116.7,129.1c1.1,.3,2.2,.5,3.6,1.4-1.78,21.97,12.8,14.77,28.2,17.4-13.3,.71-27.81-1.31-40.8-2.9-2-.3-3.9-1.6-6.2-2.6,.2-5.3,.6-10.4,1.5-16,4.9,.6,9.3,1.7,13.7,2.7Z"/>
    <path class="cls-48" d="M184,513c-7.9-.58-15.15-.51-22.7-1.7,8.9-.7,17.8-1.3,26.6-1.8,0-.4-.1-.8-.1-1.3-4.4,.3-8.9,.5-13.3,.4,.07-6.26,3.21-10.06,6.5-15.1,5.6-.2,10.7-.3,15.8-.4-3.3,7.05-1.57,21.23-12.8,19.9Z"/>
    <path class="cls-88" d="M1.9,327.1c4.79-8.89,9.08-17.92,14.1-26.7,3.2,2.7,6.1,5.6,8.8,8.8-2.31,6.36-6.35,11.91-9.7,17.8-4.7,0-8.9,0-13.2,.1Z"/>
    <path class="cls-111" d="M73.6,257.2c-5.9,1.5-11.1,.5-15.7-4.1-.4-4.2,.5-7.7,5.7-9,3.32-.55,6.14-1.59,7.8,1.6-2.7,.4-5.1,.5-7.46,.7-.23,2.65,.03,5.86,2.46,7.57,3.32-.5,28.37,1.56,30.4-2h12c.44,.55,1.44,.21,1.6,.83,.6,.7,1.2,1.1,2.2,1.7,11.99-3.53,24.65,1.61,37.1-.1,.4,.18,.76,.14,1-.2,1.32-.25,3.65,.34,4.6,.6-26.49,2.99-54.98,.69-81.7,2.4Z"/>
    <path class="cls-42" d="M132.7,483.07c-.48-3.36,4.01-3.09,6.4-3.1,7.43,.22,14.4-.04,21,2.9,13.36-1.72,25.47,5.05,38.5,2-.45,1.32-1.74,3.35-3.2,4.1-21.1,1.16-42.48-.75-62.7-5.9Z"/>
    <path class="cls-7" d="M92.7,200c1-1.5,1.9-2.9,3.3-4.5,7.3,.9,14.2,1.9,21.2,3.1,.43,4.52,.61,8.55,4.3,11.7,0,1.6,0,2.8-.3,4.2-2.78,.47-3.65-4.9-5.8-4.6-6.6-.3-13.3,.1-20.1-.1-1-3.5-1.8-6.7-2.6-9.8Z"/>
    <path class="cls-102" d="M200.4,474.1c-.4,2.2-.8,4.4-1.7,6.7-.8-.1-1-.3-1.5-.8-19.21-2.23-38.58-.38-57.8-1.3-.4-1.7-.7-3-.6-4.4,20.74,0,41.07-.39,61.6-.2Z"/>
    <path class="cls-74" d="M63.8,478.7c-.4-2.2-.8-4.4-.9-6.9,1.07,.13,2.67,2.49,4,2.2,18.8,1.22,38.38-2.96,56.9,3-10.68,4.09-21.54,1.39-32.7,2.2-9.4-.2-18.4-.3-27.3-.5Z"/>
    <path class="cls-71" d="M63.6,471.97c-.1-.2-.3-.4-.7-.6-.6-1.3-.9-2.4-1.4-4,3.59-2.26,9.39-1.16,13.4-1.4,11.97,1.06,23.01,.66,34.8,.5-.4,2-.8,3.7-1.6,5.4-15.2,.1-29.8,.1-44.5,.1Z"/>
    <path class="cls-25" d="M103.9,122.4c1.2-5.8,2.5-11.6,4.1-17.6,4.15,2.62,8.12,3.23,12.7,4.8,.7,6.1-2.3,12.5,3.2,16.9-6.9-1.4-13.5-2.8-20-4.1Z"/>
    <path class="cls-16" d="M110.96,80.97c1.29-6.75,2.48-13.41,4.17-20.36,4.67,.4,9.04,1.09,13.21,2.09-.4,7.25-.6,14.21-1.09,21.16-9.6-1.48-7.07-11.15-8.04-17.82l-2,.03c-.17,5.39,0,10.61-3.87,14.91h-2.38Z"/>
    <path class="cls-87" d="M33.6,274.8c.2,2,.1,4.1-.3,6.9-3.7,3.6-3.5,4.2,2.1,7.9,3.2,3.2,5.6,.9,8.4-.6,3.86,.51-3.78,6.51-4.7,8-7.52,.36-15.44,1.57-22.8,.2,5.6-7.4,11.3-14.8,17.3-22.4Z"/>
    <path class="cls-119" d="M1.7,327.37c4.58,0,10.21-.97,15.1,.1,56.72,4.55,114.69-.58,171.8,1.9-61.49,2.77-125-1.42-186.9,2.3-3.2-1.4-1.1-2.7,0-4.3Z"/>
    <path class="cls-5" d="M110.8,81.5c.38-.46,3.34-.57,2.4,.5-5.33,4.01,7.31,3.99,9.4,5-1.11,5.99-1.25,12.01-2.4,17.7-4.7-.8-9-1.5-13.3-2.2,1.3-6.8,2.6-13.7,3.9-21Z"/>
    <path class="cls-33" d="M106.9,102.8c11.26,1.45,24.24,3.6,35.5,5.1,4.62,.87,9.38,.08,13,3.7-11.05,3.63-24.03-1.82-34.8-2.5-4.85-1.17-10.72-1.7-13.7-6.3Z"/>
    <path class="cls-121" d="M110.6,221.37c0,.4-.1,.9-.4,1.7-3.06,.5-6.15,.31-9.2,.1-7.03,.17-14.9,.94-21.6-.1-1.05,5.98,1,12.72-3,17.1-.8-.5-1.4-.8-1.9-1.2,.14-4.85,4.67-11.81-1.1-14.7-8.98-1.45-3.49-12.21,3.6-8.6-1.5,1.4-2.8,2.4-4.1,3.4,.1,.6,.3,1.3,.4,1.9,11.91-.18,25.52,.35,37.3,.4Z"/>
    <path class="cls-89" d="M197.6,480.2c.2,.3,.4,.5,.9,.8,.2,1.2,.1,2.2,0,3.7-7.5,2.1-14.5,1-21.9-1-6.7-2.34-15.47,1.77-21.5-2.8,14.4-.5,28.5-.6,42.5-.7Z"/>
    <path class="cls-102" d="M110.6,491.27c-1.3,.6-2.6,1.7-3.9,1.7-13.1-.1-26.2-.4-39.7-.6-.7-.3-1-.5-1-1.1,1.88-3.11,5.74-1.62,8.6-1.7,2.23,.22,4.87-.81,7,0,9.72-.23,19.65-.34,29,1.7Z"/>
    <path class="cls-28" d="M163.7,489.3c10.67-.08,21.68,.06,32.9-.3,.16,.35,.65,.93,.8,1.1,0,.8,0,1.6-.3,2.7-16.43,1.06-35.46,.27-51.2,0,6.42-.7,12.59,.8,17.8-3.5Z"/>
    <path class="cls-35" d="M99.6,164.4c11.42,2.7,26.05,5.58,38,5.7,0,.1-.1,.3-.1,.6,1.4,1.3,2.8,2.3,3.7,3.4-14.39,.14-27.37-2.67-41.1-7-.3-.9-.4-1.6-.5-2.7Z"/>
    <path class="cls-68" d="M122.2,19.3c-.4,12.28-1.24,26.53-1,38.8-2.4-.2-4.4-.4-6.4-.6,3.08-12.58,4.61-25.33,7.4-38.2Z"/>
    <path class="cls-1" d="M80.6,489.1c-4.77-.2-10.51,1.32-15.1-1-1.06-7.89-2.06-7.57,6.2-6.8,2.25-.14,4.95-.14,7,1.1,.6,2.6,1.3,4.6,1.9,6.7Z"/>
    <path class="cls-88" d="M118.6,501.1c-4.83,3.7-9.47,8.78-15.1,12-5.09-.83-9.82,.06-15.4-.3,9.11-3.25,21.56-7.59,30.5-11.7Z"/>
    <path class="cls-103" d="M16,297.27c14.51,1.74,30.25-.51,44.2,1.8-13.03,.57-26.52,1.16-39.4,1-.2,.5-.3,1.1-.5,1.6,2,1.1,4,2.2,6,3.6,.08,1.21-1.02,2.53-1.1,3.7h-.3c-2.9-2.9-5.7-5.8-8.9-8.9-.2-1-.2-1.8,0-2.8Z"/>
    <path class="cls-90" d="M114.7,57.8c8.47,.63,19.28-.49,26.3,4.9-9.11,.23-16.94-.86-25.9-2.6-.3-.8-.4-1.4-.4-2.3Z"/>
    <path class="cls-62" d="M90.94,220.97h-17.91c-.1-.61-.31-1.33-.41-1.94,1.33-1.02,2.65-2.04,4.39-3.16,5.36-.02,11.04,.04,16.73,.1,1.5,1.64,4.27,.61,6.43,1.43-2.96,1.84-7.76-1.63-9.49,3.57m-6.09-2.3c.8-.1,1.5-.2,2.3-.3,0-.1-.1-.3-.1-.4h-3.3c.02,.77,.03,.69,1.1,.7Z"/>
    <path class="cls-103" d="M11.8,390.7c7.21-1.41,16.08-.21,22.5-.2-.8,1.3-1.2,2.4-2.2,3.7-6.15,.18-12.68,.05-18.7,0-.5-1.1-1-2.1-1.6-3.5Z"/>
    <path class="cls-52" d="M97.3,188.2c7.47,1.55,18.22,.52,24.7,5-9.4-.7-18.4-1.3-27.4-2,.9-1,1.7-2,2.7-3Z"/>
    <path class="cls-33" d="M103.8,122.7c6.55,1.55,14.55,1.74,20.9,4.7-7.22,2.26-14.19,.48-21.5-1.4-.1-1,.2-2,.6-3.3Z"/>
    <path class="cls-18" d="M13.5,394.5c2-.4,4.1-.4,6.8-.1,1.9,1.7,3,3.2,3.9,4.7-1.68,1.46-3.83,3.1-5.1,4.9-1.8-3-3.7-6.1-5.6-9.5Z"/>
    <path class="cls-64" d="M94.7,191.5c11.34,.35,25.15,1.71,37,2-10.72,3.72-24.38,.84-35.7,.1-.5-.7-.9-1.3-1.3-2.1Z"/>
    <path class="cls-38" d="M200.5,473.8c-8.94-2.44-18.59-1.54-27.8-2.1,8.77-3.13,17.85-.28,27.3-.5,.5,.7,.5,1.5,.5,2.6Z"/>
    <path class="cls-104" d="M95.8,193.7c7.13,.5,16.2,.8,23.1,4-7.29,1.36-15.12-1.88-22.8-2.5-.2-.6-.3-.9-.3-1.5Z"/>
    <path class="cls-84" d="M103.8,513.5c12.76-1.66,27.83,.29,41.5,.2-13.5,.2-27.4,.2-41.5-.2Z"/>
    <path class="cls-82" d="M19.3,404.3c.46-1.63,3.41-3.06,4.1-4.3,.64-1.3,3.32-.18,4-.2-.6,2.3-1.1,4.6-1.7,6.8-1.4,.1-2.8,.2-4.6,.4-.8-.8-1.2-1.6-1.8-2.7Z"/>
    <path class="cls-79" d="M92.6,200.4c1.15,3.65,2.71,10.61,4.7,14.5-1.41,.67-2.76,.33-3.9,1.1,.49-4.86-.73-10.03-.8-15.6Z"/>
    <path class="cls-117" d="M65.4,480.9s-.5,.1-.7,.2c-.5-.6-.8-1.2-1-2.1,30.51-.16,38.79,.93,1.7,1.9Z"/>
    <path class="cls-104" d="M74.3,239.1c.8,.1,1.4,.5,2.2,1.3,.45,1.9,.4,3.22-1.1,4.4-1.5,.2-2.6,.3-3.7,.4-.8-.7-1.6-1.4-2.8-2.1,1.4-1.2,3.2-2.5,5.4-4Z"/>
    <path class="cls-71" d="M22.8,409.7c2.12-.29,6.12,.77,7.8,2.2-1.73-.03-5.83,3.48-7,1.3-.91-1.34-.98-2.17-.8-3.5Z"/>
    <path class="cls-104" d="M67.3,243.3c-.8,.3-1.9,.5-3.4,.8,.8-.3,1.9-.6,3.4-.8Z"/>
    <path class="cls-48" d="M66.5,488.8c.2,.1,.4,.1,.9,.3-.2,.6-.7,1.1-1.4,1.7-.3-.3-.3-.7-.1-1.5,.3-.3,.6-.5,.6-.5Z"/>
    <path class="cls-87" d="M36.3,273c-.3,.4-1,.9-1.9,1.4,.3-.5,.9-.9,1.9-1.4Z"/>
    <path class="cls-58" d="M101,513c.2-.1,.7-.2,1.4-.2-.3,.1-.7,.2-1.4,.2Z"/>
    <path class="cls-18" d="M22.7,409.6c.1,.4,.1,.7,0,1.3-.4-.1-.7-.7-.9-1.5,.3-.3,.5-.1,.9,.2Z"/>
    <path class="cls-35" d="M98.9,163.8c.1-.1,.3-.1,.6,.2-.1,.1-.3,.1-.6-.2Z"/>
    <path class="cls-94" d="M93.5,215c.3,.1,.3,.3,.2,.8-.3,.3-.5,.3-.9,.2,0-.3,.2-.6,.7-1Z"/>
    <path class="cls-116" d="M196.6,488.8c0,.2-.4,.2-.7,.3-.41-.44,.82-1.1,.7-.3Z"/>
    <path class="cls-116" d="M197.4,489.9c-.2,.1-.4-.2-.7-.6,.3-.2,.6,0,.7,.6Z"/>
    <path class="cls-4" d="M66.4,488.7c-.15,.52-.69,.35-.8-.3,.2-.1,.4,0,.8,.3Z"/>
    <path class="cls-18" d="M22.7,412.2c.3,0,.5,.3,.8,.8-.2,0-.5-.3-.8-.8Z"/>
    <path class="cls-40" d="M133.6,14.4c1.4-.1,2.8,.2,4.4,.7,.7,7.1,1.1,14.2,1.2,21.9-9.44,4.76-5.79,13.04-8.5,12.6,.83-12.11,1-23.14,2.9-35.2Z"/>
    <path class="cls-13" d="M131.3,29.1c.4,3,.3,6-.1,9.5-3.5,.1-6.7-.3-9.8-.7,.1-2.3,.2-4.7,.4-7.4,3.1-.7,6.1-1,9.5-1.4Z"/>
    <path class="cls-9" d="M73.9,257.4c32.23-1.02,67.36-1.88,99.6-.1-.6,1-1.2,2.1-1.8,3.4-32.6-3.27-65.43,3.12-97.8-3.3Z"/>
    <path class="cls-114" d="M174,257.2c-2.1-.1-3.8-.3-5.9-.8-.61-1.43-.34-3.03-.7-4.4-11.56-2.44-24.19-.07-36.3-.7-6.51,.39-14.47-3.03-18.9,2.8-.6-.4-1.3-.9-1.7-1.8,.2-.8,.1-1.2,.1-1.6-.3,.4-.7,.9-1,1.3-.2,0-.3,0-.7-.4-.2-1.1-.2-1.8,.2-2.5,22.41,.24,45.56-1.96,67.9,.2-3.36,.53-5.92,.04-6.6,3.9,5.73,4.19,14.85,1.19,21.8,3.6-5.8,.1-11.8,.2-18.2,.4Z"/>
    <path class="cls-12" d="M171.94,297.2c12.16-2.7,8.58,5.3,11.1-14.1h0c3.7,.8,8.7-2.6,10.9,4.1,.15,3.88,1.88,7.52,.6,10.8-7.65-.25-15.17,1.01-22.6-.2,0-.2,0-.6,0-.6Z"/>
    <path class="cls-59" d="M194.6,298c0-.4,0-.9,.5-1.6,3-.9,6.7,1.5,7.8-3.4,2.3-2.1,4.2-4,6.2-5.9,4.7-.8,6.6,2.8,9.3,6.2,1.09,1.69,3.14,3.21,1.7,5-8.62,.17-17.37,.73-25.7,.3,.2-.3,.2-.6,.2-.6Z"/>
    <path class="cls-100" d="M220.6,296.2c-.6-.8-1.2-1.6-1.9-2.8,1.1-1.9,2.4-3.4,4-4.8,2.98,6.49,7.19-.76,9.8-2.9,1.92,8.11-.23,14.09-10,12.2-.8-.8-1.3-1.2-1.9-1.7Z"/>
    <path class="cls-85" d="M209,286.7c-1.9,2.3-3.9,4.2-6.5,6.2-5.4-.1-4.2-4-4.8-6.8,3.7-5.6,7.8-5.5,11.3,.6Z"/>
    <path class="cls-69" d="M232.3,285.2c-2.26,2.68-6.82,10.05-9.4,3.3,1.2-4.4,4.6-5.4,8.6-6.3,1.69-.39,.86,2.54,.8,3Z"/>
    <path class="cls-30" d="M197.3,286.2c1,2.7-.2,6.6,4.9,6.9-.4,4.8-4.1,2.4-7.1,3-.8-2.7-1.1-5.4-1.4-8.5,1.1-.7,2.2-1,3.6-1.4Z"/>
    <path class="cls-28" d="M192.7,256.9c-1.4-.3-2.4-.6-3.7-.8,1.1-.9,2.4-1.8,3.6-2.6-1.5-.5-3.2-1.1-5-1.7,.1-.6,.2-1.1,.2-1.7,2.9,.2,5.9,.2,8.7,.8,.3,.1,.2,2.9,.1,4.8-1.2,.7-2.3,1-3.9,1.2Z"/>
    <path class="cls-51" d="M109.1,223.2c4.49,.55,8.74,1.54,13.4,2.8,.6,.7,.8,.9,1.1,1.6-1.7,5.4-3.4,10.4-5.4,15.3-1.4,0-2.4,.1-3.4,.1-3.38-.54-7.92-.28-11-1.1,8.16-6.79,7.76-9.15,5.3-18.7Z"/>
    <path class="cls-74" d="M91.1,221c1.2-5.1,5.9-1.7,9.2-3.4,4.24-.43,10.13,.28,14.3-.1,14.4,.07,29.92,.28,44.9,.6,1.24-.31,1.5,1.66,1.9,2.6-23.07,.44-46.85,.67-70.3,.3Z"/>
    <path class="cls-31" d="M123.5,227.1c-.2-.2-.4-.5-.7-1,8.49-4.18,17.78-1.51,27.3-1.8,.5,.3,.5,.7,0,.7-12.33-2-5.97,10.47-4.7,16.9q-7.4,.9-7.8-5s.1,0,.4-.2c2.8-11.73-.75-13.37-11.6-10.6,.11,1.47,1.23,3.13,1.3,4.6-1.6-.9-2.9-2.2-4.2-3.6Z"/>
    <path class="cls-45" d="M160.7,224.1c1.3,0,2.7-.1,4.6,.2,3.18,3.96,2.17,6.91,.1,10.9-2.5-.65-4.55,.19-7.1,.5-.8-4.3-2.2-8.6,2.4-11.6Z"/>
    <path class="cls-99" d="M159.84,224.1c-4.36,3.13-2.62,8.47-1.5,13.2,.43,.76,1.24,2.13,.4,2.9-10.77,.26-.03-8.86-8.8-14.9v-.7c3.3-.4,6.4-.5,9.9-.5Z"/>
    <path class="cls-99" d="M167.7,229.1c-.6-1.5-1.2-2.9-1.9-4.7,6.5-.3,13.2-.2,20.3-.2-1.24,1.67-5.79,.17-7.1,.9-5.81,1.35-5.94,2.71-3.8,7.9-3.3-.5-6.7,.1-7.5-3.9Z"/>
    <path class="cls-87" d="M137.6,170c-5.4-.3-10.7-.7-16.5-1,.4-.6,1.1-1.2,2.1-1.8-3.8-4.8-2.7-10-1.7-15.5,19-.69,13.89,3.59,16.1,18.3Z"/>
    <path class="cls-44" d="M136.7,164c-.7-3.8,1.7-8.3-2.8-11.5,5.9,.1,12,.5,18.5,1.1,.57,2.32-3.48,4.09-4.4,5.6-3.1,3.1-6.5,5.7-11.3,4.8Z"/>
    <path class="cls-63" d="M130.8,49.97c3.04-3.17-.94-7.79,8.4-12.6,1.27,6.52,2.15,16.12,3.2,22.6-3.69,.14-8.02,.02-11.6-1.7-.1-3.2,0-5.8,0-8.3Z"/>
    <path class="cls-37" d="M142.9,60.1c-1-4.1-1.6-8.1-2.1-12.6,1.6,3.6,3.2,7.7,4.9,12.1-.8,.5-1.6,.5-2.8,.5Z"/>
    <path class="cls-44" d="M136.6,173.97c6.71-.45,14.97,2.29,21,3.4,.3,.7,.7,1.4,1.1,2.3-2.5,5.19-9.64,6.66-13.1,10.5-.44,1.46-6.55,.29-8,.3-.4-5.8-.7-11.2-1-16.5Z"/>
    <path class="cls-63" d="M136.7,164.4c7.12,.78,10.65-5.13,15.6-9.1,5.31,18.79,1.71,16.27-14.8,15,0,0,0-.2,.1-.3-.3-1.7-.6-3.5-.9-5.6Z"/>
    <path class="cls-103" d="M137.5,170.7c7.42,.68,17.42-.61,23.8,4-1,.9-2,1.8-3.3,2.8-6.72-1.87-15.36-1.47-20.5-6.8Z"/>
    <path class="cls-66" d="M128.3,62.7c20.55-.14,13.43-.48,17,22.8-5.46-.05-12.18,.28-17.8-1.4,.2-7.1,.4-14.1,.8-21.4Z"/>
    <path class="cls-66" d="M142.8,107.7c-3.2-.1-6.1-.4-9-1.2,.3-5.1,.5-9.7,1.1-14.3,3.34,.22,11.83,7.56,11.7,1.8,.6,4.2,1.3,8.4,1.9,12.7-1.9,.3-3.7,.5-5.7,1Z"/>
    <path class="cls-59" d="M146.6,93.7c.26,6.27-8.26-1.21-11.8-1.7-.4-1.1-.3-1.9-.2-2.8,4.1,.3,8.1,.6,12.6,.9,0,1.1-.2,2.2-.6,3.6Z"/>
    <path class="cls-83" d="M125.1,127.3c-6.68-4.32-3.96-11.46-4.4-17.8,9,.9,17.9,2.3,27.3,3.7,1.97,7.8-2.51,14.8,8.3,15.6-10.1-.3-20.5-.9-31.2-1.5Z"/>
    <path class="cls-75" d="M148.8,148c-15.4-2.87-30.47,4.67-28.3-17.4,4.3-.1,8.7,.3,13.5,1.1-.43,13.25,5.89,8.81,14.4,5.5,5.5,1.2,2.7,6.2,4.2,9.2-1.1,.7-2.2,1.2-3.8,1.6Z"/>
    <path class="cls-44" d="M148.5,136.9c-1.5,1.1-3,1.8-4.5,2.3-8.9,2.8-9.3,2.6-9.5-7.4,4.4-.2,8.8,.1,13.6,.5,.5,1.4,.4,2.8,.4,4.6Z"/>
    <path class="cls-24" d="M97.7,214.97c-.8-1.3-1.5-2.6-2.3-4.3,6.7-.5,13.3-.9,20-.6,1.5,.1,2.8,2.6,3.8,4.4-6.99,2.02-14.51-.03-21.5,.5Z"/>
    <path class="cls-94" d="M114.14,215.5c6.22-1.19,14.62-1.61,20.8-.6v.7c-6.8,.3-13.6,.2-20.8-.1Z"/>
    <path class="cls-94" d="M100.7,214.8c2,0,4.1,.1,6.5,.3-3.4,.4-7.3,.6-11.6,.7,.74-1.09,3.87-.67,5.1-1Z"/>
    <path class="cls-62" d="M114.2,217.4c-1.1,.2-2.5,.3-4.3,.2,1.1-.2,2.5-.3,4.3-.2Z"/>
    <path class="cls-49" d="M159.2,217.9c-.5,.2-1.4,.4-2.4,.3,.6-.3,1.3-.3,2.4-.3Z"/>
    <path class="cls-94" d="M93.7,216.3c-.1-.2,.2-.5,.5-.5,.3,.2,.4,.3,.5,.8-.3,.2-.6,.1-1-.3Z"/>
    <path class="cls-28" d="M153.6,217.7c-.1,.2-.3,.2-.8,.2,0-.2,.3-.3,.8-.2Z"/>
    <path class="cls-59" d="M140.7,214.5c-8.01,1.04-.9-5.04-7.1-14.4-.36-1.69,18.8-1.4,18.9,.6-.07,6.85-10.13,5.81-9.3,13.3-1,.1-1.8,.3-2.5,.5Z"/>
    <path class="cls-61" d="M163.6,214.8c-3,0-6,0-9.5-.5-.5-5.1-.5-9.7-.1-14.3,4.06,.04,10.31-1.51,9.7,4.5-.51,2.93,1.41,7.19-.1,10.3Z"/>
    <path class="cls-105" d="M159.8,199.77c-12.44,1.22-25.09-3.1-37.3-4.5,12.91-.63,26.15-1.16,38.9,0-.3,1.4-.8,2.8-1.6,4.5Z"/>
    <path class="cls-10" d="M133.6,200.3c2.62,4.49,3.79,8.79,2.6,14.2-1.01,.11-2.04,.48-3.1-.4-4.9-7.1-3.6-9,.5-13.8Z"/>
    <path class="cls-61" d="M143.6,213.9c-.66-5.94,4.92-6.85,8.7-10.1-.1,3.8-.4,7.4-.7,11-1.88,.05-5.95,.03-8-.9Z"/>
    <path class="cls-79" d="M151.9,214.8c.57-4.56-.64-10.95,1.7-15.1,.28,4.76,0,9.51,.2,14.6-.6,.5-1.1,.5-1.9,.5Z"/>
    <path class="cls-79" d="M143.3,213.9c.8,.1,1.3,.3,2,.6-1.1,.2-2.5,.2-4.2,.1,.3-.3,1.1-.5,2.2-.7Z"/>
    <path class="cls-79" d="M136.5,214.6c-.4-.1-.3-.4-.2-.6,.4,0,.6,.2,1.1,.4,0,.2-.3,.3-.9,.2Z"/>
    <path class="cls-79" d="M163.8,214.8c-.1-.2,.1-.3,.4-.6,.2,.2,0,.4-.4,.6Z"/>
    <path class="cls-87" d="M134.1,89.1c.73,5.58-.1,11.44-.6,17.1-4.3-.3-8.3-.7-12.6-1.3,.2-5.7,.8-11.3,1.4-17.3,4,.3,7.7,.9,11.8,1.5Z"/>
    <path class="cls-32" d="M127.3,84c.8,.2,1.4,.4,2.2,.8-1.9,.7-4.1,1.3-6.5,2.1-2.35-.67-15.41-.95-9.3-4.7,5.25,.62,9.04,1.01,13.6,1.8Z"/>
    <path class="cls-100" d="M139.6,85.4c.3-.1,.8-.2,1.8-.1-.2,.1-.9,.2-1.8,.1Z"/>
    <path class="cls-8" d="M177.4,249.2c-11.86-.8-26.87-1.12-38.7-1.6,5.63-2.95,12.93-2.33,19-2.2,10.5,.37,21.01,.06,31,3.6-1.4,.1-2.8,.1-4.9,.2-2.44,.11-4.73-1.69-6.4,0Z"/>
    <path class="cls-18" d="M189,249c-9.32-3.28-18.22-3.27-27.7-3.6,9.34-1.4,19.7-.72,28.9-.2l.2-.4c2,.5,3.9,1.1,6.1,2-2.2,.9-4.6,1.6-7.5,2.2Z"/>
    <path class="cls-33" d="M177.1,249.4c.6-.5,.9-.8,1.5-.7,.4,1.7,.5,3,.6,4.3-2.6,.1-5.2,.1-8.3,.2-.39-4.01,3.23-3.36,6.2-3.8Z"/>
    <path class="cls-106" d="M179.5,253.2c-.4-1.5-.6-2.8-.6-4.5,1.4-.1,2.7,.2,4.4,.5,.7,1.5,1.1,2.8,1.7,4.9-2-.3-3.6-.4-5.5-.9Z"/>
    <path class="cls-43" d="M175.4,233.1c-4.84-7.77,2.64-8.21,8.9-8,.7,5.6,.9,11.3,1.1,17.3-3.19,.77-6.2,.34-9.4-.8-.4-3.2-.5-5.9-.6-8.5Z"/>
    <path class="cls-42" d="M145.6,191c1.38-3.68,6.31-4.28,9.5-6.7,1.7,2.5,3.1,5.2,4.1,8.3-4.8-.2-9.2-.9-13.6-1.6Z"/>
    <path class="cls-70" d="M145.3,190.9c4.18,1.54,12.69,.08,15.1,3.7-9.6-.29-19.06,.15-28.8-.8,1.67-1.35,4.28-1.84,6-2.7,2.5-.1,5-.2,7.7-.2Z"/>
    <path class="cls-107" d="M175.1,232.97c.4,2.7,.5,5.4,.6,8.5-13.4,2.69-28.79,2.55-42.2,1.9,0-.8,0-1.2,.1-2,1.4-1.7,2.7-3.1,4-4.4q.5,5.8,8.2,4.9c6.6-1.2,7.8-3.9,4.9-8.9,1.34-.02,2.81-.22,3.9-.3-.7,3.7-1.7,7.7,5.1,7.5,9.71,3.39,7.59-4.74,8-10.8,.8,3.7,4.2,3.1,7.4,3.6Z"/>
    <path class="cls-61" d="M133.4,243.77c11.58,.21,23.84-.1,35.8,.3-14.12,1.86-31.4,.57-45.5,.6,2.37-1.39,7.01-.28,9.7-.9Z"/>
    <path class="cls-61" d="M185.2,244.6c-2.7,.2-5.8,.3-9.3,.2,2.7-.3,5.8-.3,9.3-.2Z"/>
    <path class="cls-112" d="M180.8,242.8c.5-.1,1.5-.2,2.6-.1-.5,.1-1.3,.2-2.6,.1Z"/>
    <path class="cls-61" d="M190.3,244.7c.2,.1,0,.5,0,.5-.51,.05-.54-.83,0-.5Z"/>
    <path class="cls-61" d="M172.4,244.4c0,.2-.3,.3-.7,.2,.1-.2,.2-.3,.7-.2Z"/>
    <path class="cls-90" d="M142.6,63.8c-.1,0-.4-.2-.7-.5,.2-.2,.4,0,.7,.5Z"/>
    <path class="cls-22" d="M178.5,447.8c-21.91,8.98-45.42,13.37-68.9,13.8-13.87-8.58-9.34-5.8-1.7-15.7,14.66-2.18,30.03-2.11,44.4-5.8,8.8,1.14,17.98,3.72,26.2,7.7Z"/>
    <path class="cls-76" d="M107.5,446c-8.06,10.53-11.05,6.47,1.5,15.6-14.36,2.01-28.56,4.52-43,4.3,1.78-13.1,12.29-16.81,23.7-19.8,6.05-2.3,11.73,.06,17.8-.1Z"/>
    <path class="cls-72" d="M95.1,444.9c-1.6,.4-3.1,.7-5.1,1.1-3.4-5-2.8-7.1,2.7-7.8,16.3-2.1,32.6-4.4,49.3-.3,.2,.9,.2,1.5-.3,2.1-15.58,1.84-31.26,2.45-46.6,4.9Z"/>
    <path class="cls-71" d="M89.84,410c36.72,.84,74.43-2.9,111.1,.2v1c-7.22,.92-15.03,2.4-22.2,.1-30,.53-60.45,3.18-90.3,.6,.3-.9,.9-1.4,1.4-1.9Z"/>
    <path class="cls-18" d="M89.1,409.9c-.1,.6-.6,1.1-1.3,1.7-15.6,0-31.1-.3-46.5-.4-4.19-.45-9.7,2.17-13.5-1,20.1-.2,40.5-.3,61.3-.3Z"/>
    <path class="cls-84" d="M142.2,439.9c.1-.5,.1-1,.3-1.9,3.2,.2,6.3,.8,9.7,1.7-2.7,1-5.7,1.7-9.1,2-.7-.9-.8-1.3-.9-1.8Z"/>
    <path class="cls-57" d="M228.1,439.6c-3.3,3.8-6.5,7.7-10.1,11.7-4.81-12.24,4.58-15.2,8-25.8,3.6-.9,6.8-1.3,10-1.4-2.6,5.5-5.3,10.5-7.9,15.5Z"/>
    <path class="cls-36" d="M218.7,421.3c.6-2.8,1.1-5.7,2.3-8.9,7.91-.26,19.03-3.14,14,8.6-5.7,.2-11,.3-16.3,.3Z"/>
    <path class="cls-56" d="M235.6,421.1c2.69-11.77-7.82-8.74-14.5-9.13,0,0-13.3-.17-20-.47-.4-.4-.4-.6,0-1.3,8.89-2.87,26.97,1.07,35.6-.8,.1,.1,.6,.1,.6,.1,1.3-.52,3.25-.16,4.5,.3-.55,4.52-3.87,9.98-5.9,13.7-.2-1.2-.3-1.8-.3-2.4Z"/>
    <path class="cls-41" d="M235.1,421.1c.6,.5,.6,1.94,.8,2.8-3.2,.5-6.3,.9-9.9,1.4-2.8-.9-7,2.1-7.3-3.5,5.3-.5,10.6-.6,16.4-.7Z"/>
    <path class="cls-25" d="M144.94,282.1c.07,2.29-.58,5.09-1.2,7.1-3.1,2.6-3.1,5.2-.8,8.1-8.08,2.15-18.61,.25-27.1,1-.15-2.4-1.56-5.62-.9-8.1,.1,0,.1-.2,.1-.2-1.05,1.57-3.22-5.84-4-6.4-1.8,1.5-3.5,3.1-5.5,4.7,.36,6.14,1.33,4.11-4.5,7.8,4,.9,6.5,1.4,8.5,2-6.32-.27-13.55,1.36-19.2-.1,4.52-2.28,3.88-13.87-2.6-12.8-4.46-1.09-9.09-5.03-12.6-.7-8.43,3.04-12.57-6.58-19.6-7.2,3.5-.8,6.8-.7,10.1-.9,12.91,.41,4.15-14.23,14.7-9.8,16.84,7.3,35.54,5.39,53.4,6.9,5.6,0,10.6,4,11.2,8.6Z"/>
    <path class="cls-5" d="M145,282.1c-1-4.6-6.1-8.6-11.7-9-17.97-1.5-36.48,.39-53.4-6.9-10.39-4.42-1.94,10.23-14.7,9.8-3.3,.2-6.6,0-10.1,.9,7.1,.6,10.7,9.9,19.2,7.6-1.87,4.22-2.89,8.92-3,13.4-2.08,.31-3.95-.17-5.6-1.3-4.93-15.48-7.08-18.78-20.7-7.4-.2,0-.5-.1-.9-.4,2.75-1.98,3.66-4.22,3.9-7.5-3.38,.61-6.3,2.31-9.4,3.5-1-1.1-2-1.9-2.9-2.7,11.9-21.42,11.43-17.09,33.9-18.4,22.17-.77,60.46-4.72,78.6,9,3.99,3.84,4.2,10.63-3.2,9.4Z"/>
    <path class="cls-15" d="M143.7,289c.3-1.6,.5-3.3,.9-5.2,3.6-.9,6.8-.6,8.8,3.8-1.3,6.4-5.3,4-8.8,3.2-.3-.8-.6-1.3-.9-1.8Z"/>
    <path class="cls-54" d="M144.7,291c3.4,.5,7.4,2.9,8.9-3.2,.4,1.9,.7,4.2,.8,7.1-2.7,.8-5.2,.9-7.8,.7-.8-1.7-1.3-3.1-1.9-4.6Z"/>
    <path class="cls-1" d="M146.7,295.9c7.92-.44,17.7-.89,24.9,1.9,.1,.2,0,.4-.5,.17l-13.1,1h-7.9c-2.8-.97-5.2-1.07-7.6-1.17,.67-1.29,3.33-1.29,4.2-1.9Z"/>
    <path class="cls-8" d="M35.3,282.1c.89,.72,3.55,2.13,3.1,3.2-.7,1.55-2,3.04-3.2,4-5.5-3.3-5.7-4-2-7.2,.8-.1,1.3-.1,2.1,0Z"/>
    <path class="cls-57" d="M182.5,283.2c.2,.1,.2,.3,.2,.8-.1,0-.2-.3-.2-.8Z"/>
    <path class="cls-4" d="M81.14,488.68c-.78-2.15-1.37-4.1-1.85-6.54,4.48-2.68,10.57-.53,15.61-.98,3.94-.21,8.72-.22,12.39-.19,.98,3.02,1.95,6.05,2.93,9.46-8.96-1.23-18.83-1.9-28.29-1.46-.2-.1-.59-.2-.78-.29Z"/>
    <path class="cls-116" d="M163.2,489.2c-4.66,4.76-11.19,2.47-17.7,3.5-5.54,.59-10.06-2.29-14.9-3.7,.6-1.7,1.2-3.5,1.9-5.5,10.2,1.7,20.2,3.7,30.7,5.7Z"/>
    <path class="cls-9" d="M118.9,500.9c-5,2.2-9.7,4.2-14.8,6.2,8.7-5.85,11.12-22.92,24.4-16.8,.1,.9,0,1.3-.1,1.7-3,2.82-5.89,6.3-9.5,8.9Z"/>
    <path class="cls-46" d="M128.6,492.4c0-.7,.1-1.1,.2-1.8,.5-.6,1-.9,1.7-1.4,3.4,1,6.5,2.1,9.9,3.7-1.5,2.4-3.1,4.4-4.7,6.3-2.4-2.2-4.7-4.3-7.1-6.8Z"/>
    <path class="cls-35" d="M91.94,479.9v-.4c13.81-.27,30.93-.65,45-.1,0,.2,.1,.7,.1,.7-.46,0-2.86,.17-3.2,.8-13.36-.39-28.81-.76-41.9-1Z"/>
    <path class="cls-72" d="M91.1,479.57c8.2,.1,16,.3,24.2,.5-16.07,1.38-33.11,.89-49.5,.6,8-.4,16.4-.7,25.3-1.1Z"/>
    <path class="cls-72" d="M122.9,480.7c.3-.2,.8-.3,1.5-.3-.3,.2-.8,.3-1.5,.3Z"/>
    <path class="cls-14" d="M13.84,339.97q.9-8,8.9-8c40.21,.17,80.42-.13,120.6-.8,23.96,.74,47.88-1.14,71.8,.5-1.79,8.28-1.26,18.05-1.6,27.2-4,1.1-6.7,3.1-7.6,7-.84,1.96-1.57,4.84-1,6.9,1.6,6.89,5.96,12.25,13.2,13.3,.4,1.6,.5,3,.5,4.4-8.57-.47-18.14-.79-26.6-1.2,.92-3.04,7.25-6.14,2.5-8.6-7.68-4.59-16.08-8-23.3-13.2,7.57-10.23,23.61-8.08,31.2,1.6l1.3-1.3c-2.3-2.3-4.5-4.6-6.8-7-9.49-5.37-18.64-2.55-26.2,3.3-1.4,1-2.5,3.6-2.4,5.4-.13,4.18,5.04,1.55,6.8,4.2-1,1.2-1.6,2.2-2.6,3-2.12-.14-3.88-2.42-5.3-3-6.2-.5-6.8-4.6-6-9.5,.6-.4,1.2-.9,1.1-1.2-2.57-8.19-11.85-5.65-18-3.8,.5,.3,1,.6,1.5,1.1-4.1,1.92-8.28,1.21-12.1-.8-9.1-4.89-17.94-1.13-26.9,.1-5.59-10.01-17.03-11.76-27.4-10.5-4,.5-8.1,1.3-10,6.1,3,1.3,8.3-3.1,8.1,3.8-2.1,.4-3.8,.7-5.9,.9-5.2-2.8-8,1.7-11.8,2.8,11.27-17.7-36-2.55-41.4-20.3-1-1.1-3.2-1.6-4.6-2.4Z"/>
    <path class="cls-20" d="M13.7,340.6c1.5,.3,3.7,.8,4.4,2,5.98,18.07,52.56,2.29,41.5,20.6,.8,4,1.4,7.4,1.9,11-1-.2-1.8-.7-2.7-1.5,2.87-17.67-29.67-12.52-20,7.3,.23,3.48,1.56,7.06-1.6,10-7.1,.63-13.57,.03-21.1,.1,4-.7,4.7-3.1,3.6-7.3-1.6-5.9-2.5-11.9-3.6-18.4,2.4-5,1.7-6.6-3.3-8,.3-5.2,.6-10.3,.9-15.8Z"/>
    <path class="cls-104" d="M121.5,331.4c-33.44-.96-68.73,.05-102.4-.3,56.94-1.64,115.14-2.04,172.7,0-22.17-.14-48.1,.05-70.3,.3Z"/>
    <path class="cls-8" d="M12.6,356.6c5.2,1.1,5.9,2.7,3.3,7.3-2.6-1.7-5-3.5-3.3-7.3Z"/>
    <path class="cls-82" d="M135.8,499.4c1.4-2.2,3.1-4.1,4.8-6.4,13.25-.27,26.23,.18,39.6,.4-2.29,5.2-5.15,9.26-6,15.2-13.99,1.5-26.96-1.58-38.4-9.2Z"/>
    <path class="cls-71" d="M145.5,505.3c13.37,4.55,28.38,4.22,42.4,2.9,0,.4,.1,.8,.1,1.3-10.89-.56-35.56,5.8-42.5-4.2Z"/>
    <path class="cls-88" d="M123.7,496.9c0-.1,.2-.4,.7-.8,0,.2-.2,.4-.7,.8Z"/>
    <path class="cls-30" d="M140.6,459.4c11.1-3.1,22.1-6.3,33.6-9.4-2,7-2,13.6,3.4,19.8-12.13,4.37-26.59,1.44-38.9,2-.23-4.2,2.6-8.27,1.9-12.4Z"/>
    <path class="cls-83" d="M136.2,173.97c.4,5.25,1.96,11.99,1,17-7.57-.31-14.23,.9-21.4-.6,4.45-5.24,2.6-11.13,2.9-17.8,5.6,.1,11.3,.7,17.5,1.4Z"/>
    <path class="cls-82" d="M141.7,407.3c-37.85-.27-75.35-.07-113.3-.6,53.88-1.28,108.23-.11,162-.3-16.13,2.07-32.75,.18-48.7,.9Z"/>
    <path class="cls-19" d="M34.7,405.9c-2.55,.04-5.77,.59-8.6,.8,.2-2.3,.8-4.5,1.4-6.9-.7-.1-1.6-.2-2.7-.6-1.3-1.7-2.5-3.1-3.9-4.8,3.62-.08,9.37-.65,13.8-.1-2.22,4.62-2.2,7.58,0,11.6Z"/>
    <path class="cls-93" d="M142.1,407.5c14.3-.3,28.9-.3,44,0,.5,.7,.5,1.1,.5,1.4-14.56,.37-29.94-.21-44.5-1.4Z"/>
    <path class="cls-21" d="M16.6,327.1s-.5-.1-.7-.2c2.4-4.9,5-9.8,8.3-14.9,61.71-.13,122.79,.35,184.6-.2,2.41,4.31,1.59,10.56,2.3,15.2-64.87,.07-129.95,.68-194.5,.1Z"/>
    <path class="cls-2" d="M208.5,311.8c-61.35,.47-122.64,.55-184,.1-.44-3.87,1.66-2.94,4.6-2.8,59.4-1.35,119.25-.35,178.5-.2,.5,1.1,.7,2,.9,2.9Z"/>
    <path class="cls-3" d="M123.84,245c7,0,14.1,.1,21.6,.2-13.94,5.38-30.81,1.34-45.3,2.5-11.78,.58-24.34,.54-36.2,2.3v-3.6c12.86-1.62,26.17-1.59,39.1-2,6.56,.64,14.17,.39,20.8,.6Z"/>
    <path class="cls-123" d="M71.04,248.97c12.93,.07,25.7,.11,37.9,.2v2.5c-8.22,1.22-19.06-.52-27.1-1.3-1.3-.1-2.8,1.6-4.5,2.5-4,.1-7.9-4.2-11.2,.9-.7-1.1-1.5-2.1-2.2-3.5,1.45-1,5.49-1.06,7.1-1.3Z"/>
    <path class="cls-103" d="M167.94,254.5v1.7c-19.1,.3-38.3,.3-57.9,.2,18.88,.26,38.96-.98,57.9-1.9Z"/>
    <path class="cls-80" d="M131.6,251.4c10-.1,20.1-.2,30.2,0-3.83,.49-7.68,1.23-11.3,2.6-5.73,.59-12.34,.37-18.7,0-.2-1.4-.2-2-.2-2.6Z"/>
    <path class="cls-90" d="M131.1,251.3c.5,.7,.5,1.3,.5,2.3-6.62-.35-12.57-1.82-19.1,.7,3.85-6.22,12.42-2.47,18.6-3Z"/>
    <path class="cls-33" d="M77.4,252.9c5.21-5,11.96-.89,18.5-.8-4.99,3.41-13.21,.2-18.5,.8Z"/>
    <path class="cls-54" d="M77.1,252.9c5.2,.1,10,.3,15.1,.8-8.2,.2-16.8,.2-25.8,.1,2.7-5,6.7-.8,10.7-.9Z"/>
    <path class="cls-82" d="M151,254.1c4.6-1.74,11.61-4.14,16.5-1.8,.1,.5,.2,1,.3,1.8-5.23,.31-11.35,.55-16.8,0Z"/>
    <path class="cls-123" d="M109.8,252.1c.1-.5,.5-.9,.8-1.4,.13,.5,.27,1.98-.8,1.4Z"/>
    <path class="cls-103" d="M149.7,254.3c-.05-.08,1.36-.28,.6,.2,0,0-.5-.1-.6-.2Z"/>
    <path class="cls-29" d="M197.3,480c-18.12-.63-41.44,2.7-58.4-.8,19.46,0,39.05-1.24,58.4,.8Z"/>
    <path class="cls-72" d="M138.7,479.2s-.1,.5-.1,.7c-2.55,.87-2.25-1.07,.1-.7Z"/>
    <path class="cls-72" d="M133.6,480.8c0-.1,.2-.3,.6-.4,.1,.1-.2,.3-.6,.4Z"/>
    <path class="cls-24" d="M133.6,199.87c-4.2,5.1-5.4,6.9-.9,14-3.4,.4-6.9,.5-10.8,.5-1.06-4.52-.39-11.17-.1-15.4,2.8,.51,11.38-.99,11.8,.9Z"/>
    <path class="cls-120" d="M134,199.3c-5.06,.08-11.28-.38-16.4-.1,0,0-.3-.4-.4-.6,.5-.4,1.1-.6,1.8-.9-1.8-.7-3.5-1.3-5.3-2.2,9.14-1.49,18.73,.77,27.6,3.4-2.1,.2-4.5,.3-7.3,.4Z"/>
    <path class="cls-12" d="M117.6,199.6c1.1-.4,2.1-.5,3.5-.4,.4,3.4,.4,6.6,.4,10.4-2.9-2.3-4.5-5.5-3.9-10Z"/>
    <path class="cls-28" d="M138.6,471.97c19.32,1.03,40.8-2.49,59.8,1.6-19.5,.4-39.2,.5-59.6,.5-2.05,.14-1.11-1.64-.2-2.1Z"/>
    <path class="cls-22" d="M137.5,473.77s.5,.2,.7,.3c.21,1.27,2.11,4.09,.7,4.9-6.62,0-13.07,.01-19.8-.1,.9-.6,2.2-1.1,4.7-2-3.5-1-6.1-1.7-8.5-2.7,7.5-.3,14.9-.4,22.2-.4Z"/>
    <path class="cls-80" d="M63.7,472.27c15.66,.28,33.36-1.95,49.6,.8-15.13,2.33-30.99,.21-46.4,.9-1-.1-2-.9-3.2-1.7Z"/>
    <path class="cls-65" d="M111,474.1c8.37-2.28,18.25-.31,26.4-.9,0,0,.1,.4,.1,.6-8.5,.27-17.58,.49-26.5,.3Z"/>
    <path class="cls-11" d="M137.6,472.9c-9.36-.18-19.3,1.26-28.7-1,0-1.7,.4-3.4,1.1-5.5,4.29-3.38,9.21,1.06,14.1,.6,3.5-.57,7.84,2.96,9.1-1.9,1.7,0,3-.1,4.5,.2,.92,2.49,1.92,5.55-.1,7.6Z"/>
    <path class="cls-67" d="M111.9,465.3c-12.23,2.96-24.31,1.22-37,.8,10.89-2.31,25.9-1.86,37-.8Z"/>
    <path class="cls-1" d="M125.3,83.47c-20.96-1.54-6.65-.78-8.2-17.48l2-.02c1.25,6.26-1.79,14.73,6.2,17.5Z"/>
    <path class="cls-13" d="M62.3,288c1.1,2.8,2.2,5.5,2.8,8.7-8.8,.4-17.2,.3-25.6,.3,4.44-8.05,15.31-7.09,22.8-9Z"/>
    <path class="cls-15" d="M62.4,287.6c-5.59,1.3-11.44,2.53-17.5,3.4,0-.4-.1-.8-.1-1.5,5.33-4.69,13.93-12.09,17.6-1.9Z"/>
    <path class="cls-2" d="M35.3,289.6c.63-1.09,2.8-3.18,3.3-4.5h0c3.01-1.72,5.91-3.18,9.3-3.8-.28,3.38-1.1,5.68-4.3,7.4-2.7,1.8-5.1,4.1-8.3,.9Z"/>
    <path class="cls-3" d="M39.1,296.97c9.52,.86,20.06-1.69,29.1,1.3-14.38,1.17-28.31-.99-43.1-.3,4.2-.4,8.9-.7,14-1Z"/>
    <path class="cls-5" d="M44.6,291.1c.3-.1,.7-.1,.9-.1-.6,.7-1.4,1.3-2.5,2,.2-.5,.7-1.2,1.6-1.9Z"/>
    <path class="cls-115" d="M181.24,327.17c25.49-.24,53.29-.18,78.8-.7,7.51,7.49-15.63,3.81-18.6,4.3,4.7-.6,9.1-.9,13.5-1.3v-.5c-24.5-1.06-49.82,2.14-73.9-1.3,.1-.2,.2-.5,.2-.5Z"/>
    <path class="cls-93" d="M181.5,327.87c.5,.2,1,.4,1.6,.8-53.5,.2-107.2,.2-160.9-.1,52.68-1.61,106.9-.22,159.3-.7Z"/>
    <path class="cls-26" d="M189.04,329.07c22.3-.2,44.6-.2,66.9-.2v.5c-13.49,1.29-28.64,2.8-42,2.1-5.52-1.35-22.43,1.38-24.9-2.4Z"/>
    <path class="cls-37" d="M101.3,327.7c-27.79-.77-56.85,2.35-84.6-.2,28-.3,56.1-.1,84.6,.2Z"/>
    <path class="cls-34" d="M78.6,237.1c.3-4.4,.6-8.9,.9-14.1,3.2,.2,6.7,.5,10.8,1.3,3.5,5.3,2.4,9.5-1.7,12.8-4.2-4.1-6.1-4-10,0Z"/>
    <path class="cls-34" d="M93.7,222.97c3.06,.08,7.21-.19,10.6,.2,1.3,1.2,2,2.3,2.4,3.6-4.4,3.1-8.4,6-12.4,8.6,0-4.3-.3-8.4-.6-12.4Z"/>
    <path class="cls-53" d="M78.74,237.4c4-4.3,5.9-4.4,9.9-.1-1.43,5.12-7.37,5.95-11.7,5.9-.35-1.93,.57-4.18,1.8-5.8Z"/>
    <path class="cls-94" d="M86.4,241c3.53-5.29,8.81-9.85,4.2-16.5,.7-.6,1.5-.9,2.7-1.2,.6,4,.9,8,.8,12.6-2.8,2-5.2,3.5-7.7,5.1Z"/>
    <path class="cls-122" d="M107.1,226.8c-.7-1.1-1.5-2.2-2.5-3.4,1-.2,2.3-.2,4-.2,1.6,5.1,4.29,10.45-1,14.7-2.27-1.4,.06-8.61-.5-11.1Z"/>
    <path class="cls-122" d="M102.6,223.2c0,.1-.4,.1-.9,.1,0-.2,.3-.2,.9-.1Z"/>
    <path class="cls-48" d="M81.7,489.5c.6-.2,1.4-.3,2.6-.2-.5,.2-1.4,.3-2.6,.2Z"/>
    <path class="cls-48" d="M74.7,489.5c.6-.2,1.4-.3,2.7-.3-.6,.3-1.5,.4-2.7,.3Z"/>
    <path class="cls-48" d="M94.6,489.5c.1-.1,.3-.2,.9-.1-.1,.1-.4,.2-.9,.1Z"/>
    <path class="cls-48" d="M100.6,489.6c.1-.2,.4-.2,.9,.1,0,.32-.55,.21-.9-.1Z"/>
    <path class="cls-1" d="M130.8,49.6c0,3-.1,5.5-.2,8.6-2.7,.3-5.4,.1-8.5-.1-.6-6.5-.9-12.9-.9-19.7,3.3,0,6.5,.4,10,.8,.1,3.3-.2,6.6-.4,10.4Z"/>
    <path class="cls-87" d="M75.8,481.5c1.1-.2,2.5-.3,4.3-.3-.71,1.28-2.93,.83-4.3,.3Z"/>
    <path class="cls-87" d="M71.7,481.5c-.15-.05,1.34-.28,.6,.1,0,0-.5-.1-.6-.1Z"/>
    <path class="cls-78" d="M26.3,304.87c-2-1.1-4-2.2-5.9-3.3,.2-.5,.3-1.1,.5-1.6,15.67,.79,35.99-1.53,50.4,1.3-7.67,1.97-15.29,2.93-23.2,2.9-7.61,.34-15.14-2.41-21.8,.7Z"/>
    <path class="cls-111" d="M70.4,300.3c-10.3-.1-20.5-.2-31.2-.4,15.67-.25,33.52-2.96,49.3-.4,0,.7,0,1.1-.1,1.6-6.01,.13-12.21-.7-18-.8Z"/>
    <path class="cls-9" d="M26.4,305.2c6.21-3.62,14.26-.44,21.4-.7-5.76,4.19-13.49-2.58-19.5,2.5-.8-.3-1.3-.6-1.8-.9-.1-.3-.1-.5-.1-.9Z"/>
    <path class="cls-88" d="M26.2,306.2c.8,.1,1.3,.4,2.1,1.1,.3,.9,.3,1.3,.3,1.8-.8,0-1.7-.1-2.9-.2-.2-.9,0-1.7,.5-2.7Z"/>
    <path class="cls-74" d="M84.3,218.67c-.81,.06-.79-.15-.8-.7h3.3c0,.1,.1,.3,.1,.4-.8,.1-1.6,.2-2.6,.3Z"/>
    <path class="cls-121" d="M34.5,393.88c-.4,0-.8,0-1.6-.09,.2-1.09,.7-2.09,1.4-3.27,60.8-.09,121.44,.37,182.4,.73-29.27,1.58-58.65-.06-87.6,2.73-31.55-.74-63.88-4.48-94.6-.09Z"/>
    <path class="cls-50" d="M119.9,191.4c5.4-.2,11.1-.3,17.3-.3-4.56,2.69-12.57,3.48-17.3,.3Z"/>
    <path class="cls-19" d="M23.1,400.1c-.5,.8-1.4,1.6-2.5,2.5,.6-.7,1.4-1.6,2.5-2.5Z"/>
    <path class="cls-30" d="M131.3,193.9c1.5,.1,2.6,.2,4.1,.5-2.1,.3-4.5,.4-7.4,.5,.7-.4,1.8-.7,3.3-1Z"/>
    <path class="cls-30" d="M125.5,194.7c-.1,.1-.2,.1-.7,.1,0-.2,.3-.3,.7-.1Z"/>
    <path class="cls-108" d="M76.6,243.47c6.72-.79,14.74-.02,21.1-1,.73,.21,2.17-.45,2.8,.2,0,.7,0,1-.3,1.5-7.65,1-16.5,.42-24.1,.8-.1-.5,.1-.9,.5-1.5Z"/>
    <path class="cls-101" d="M260.5,326.3c-8,.5-16,.6-24.5,.3-2.11-6.78-4.42-13.53-5.2-20.3,6.6,.4,12-1,15.6-6.5,5.17,8.53,11.13,16.68,14.1,26.5Z"/>
    <path class="cls-117" d="M246.4,299.6c-3.7,5.6-9.1,7-15.8,6.5-3.66-2.76-8.91-3.14-12.8-4.5,9.65-.71,18.71-3.05,28-4.8,.53,.07,.54,2.29,.6,2.6,.2-.1,.1,.1,0,.2Z"/>
    <path class="cls-56" d="M245.8,296.4c-4.54,1.78-12.31,2.19-17.2,1.5,7.35-2.77,3.03-9.26,4-14.7,4.4,4.1,8.7,8.5,13.2,13.2Z"/>
    <path class="cls-101" d="M246.7,299.2c-.2-.1-.2-.3-.2-.9,.1,0,.3,.4,.2,.9Z"/>
    <path class="cls-82" d="M109.1,249.2c-12.2,0-23.9,0-36.1-.1,27.96-2.29,56.98-1.28,85.4-.9-16.11,.56-32.72,.86-49.3,1Z"/>
    <path class="cls-80" d="M167.3,252c-.5,0-1-.3-1.7-.8,.4,.1,1.1,.3,1.7,.8Z"/>
    <path class="cls-110" d="M88.5,301c.06-2.69,2.62-2.7,5.1-2.4,7.56,.04,14.78,.15,22-.4,0,0-.1,.1,.3,.4,18.82,.13,37.26,.19,55.8-.1,0,0,.1-.2,0-.2,1.79-.02,3.67,.35,2.9,2.9-1.67,2.46-6.69-.16-9.4-.2-25.74-.02-51.25,1.53-76.7,0Z"/>
    <path class="cls-47" d="M174.6,299.1s-.1-.4-.1-.5c6.4-.3,12.8-.4,19.6-.5,.5,0,.4,.3,0,.6-6.7,.3-13.1,.3-19.5,.4Z"/>
    <path class="cls-109" d="M174.6,299.17c10.09-.62,20.88-.21,31.2-.8,9.6-.13,20.5-.74,30.5-.1-8.9,3.35-19.55,3.32-29.3,3.1-3.95-.24-8.06,1.21-11.5-.6-6.81,.98-14.18,.45-20.8-.2-.1-.4-.1-.7-.1-1.4Z"/>
    <path class="cls-56" d="M222.4,297.9c-.3,.3-.7,.3-1.5,.3-.3-.5-.3-.9-.3-1.6,.6,.1,1.1,.5,1.8,1.3Z"/>
    <path class="cls-47" d="M205.6,298.5c0,.3-.3,.4-.9,.3,0-.4,.3-.5,.9-.3Z"/>
    <path class="cls-113" d="M123.5,227.6c9.93,7.27,2.83,5.35-.2,15.4-1.9,0-3.3-.1-4.8-.1,1.7-5,3.4-10,5-15.3Z"/>
    <path class="cls-109" d="M118.54,242.9c4.67,.47,11.12-.56,15.4-1v1.7c-5.27,.9-13.53,.8-18.8,.2,0-.2,.1-.7,.1-.7,.9-.1,1.9-.2,3.3-.2Z"/>
    <path class="cls-108" d="M114.7,243c-.49,1.68-10.41,1.65-11.7,.9,0-.8,.3-1.3,.5-1.7,2.98,.22,7.68,.61,11.2,.8-.1-.1,0-.1,0,0Z"/>
    <path class="cls-113" d="M103.7,241.9c-1.58,2.05-.39,2.73-3.3,2,.21-3.01,4.31-5.01,5.9-6.9,.2,.3,.5,.6,1,1.1-.9,1.3-2.1,2.5-3.6,3.8Z"/>
    <path class="cls-113" d="M114.4,242.8c-.3,.2-.8,.2-1.7,.1,.3-.1,.9-.2,1.7-.1Z"/>
    <path class="cls-51" d="M133.6,241.37c-3.1,.7-6.1,1-9.5,1.4,1.45-11.45,7.69-3.91,2.2-16.6,11.35-2.65,14.02-.83,11.2,10.8h-.1c-1.2,1.4-2.5,2.8-3.8,4.4Z"/>
    <path class="cls-51" d="M150.14,233.1c2.9,5.1,1.7,7.7-4.5,8.9-1.4-3-2.4-6.1-3.1-9.7,3.5-1.9,6.7-3.1,9.9-4.4,.33,.29,1.19,2.19,1.5,2.5v2.1c-.91,.49-2.58,.28-3.8,.6Z"/>
    <path class="cls-43" d="M152.8,227.7c-3,1.6-6.2,2.8-9.7,4.3-.5-6.6-.3-6.8,7.1-6.8,1,.7,1.7,1.4,2.6,2.5Z"/>
    <path class="cls-107" d="M137.9,236.9c0-1.8,.4-3.8,.8-6.2,0,1.7-.3,3.8-.8,6.2Z"/>
    <path class="cls-113" d="M126.3,226.3c0-.1,.1,.3,.1,.4-.1,0-.2-.1-.1-.4Z"/>
    <path class="cls-55" d="M167.3,231.2c.68,5.62,.61,12.17-7.3,9-.48-.59-.62-2.85-1.3-3.3,0,0-.1-.5-.1-.7,2.24-1.29,4.48-1.41,6.9-1,.5-1.3,1-2.6,1.8-4Z"/>
    <path class="cls-107" d="M154.3,230.2c-.1,0-.3-.3-.6-.9,.2,.1,.4,.4,.6,.9Z"/>
    <path class="cls-45" d="M158.8,237.3c.2,0,.4,.2,.6,.7-.2,0-.4-.2-.6-.7Z"/>
    <path class="cls-70" d="M146.4,189.3c0,.1-.2,.4-.6,.7,0-.1,.2-.4,.6-.7Z"/>
    <path class="cls-79" d="M100.6,214.7c-.1,.2-.3,.2-.7,.2-.1-.2,.2-.2,.7-.2Z"/>
    <path class="cls-27" d="M153.3,199.6c.1,.2,0,.3-.5,.6-.8-.1-1.3-.4-2.1-.8,.6-.1,1.5,0,2.6,.2Z"/>
    <path class="cls-30" d="M152.8,194.6c1.5-.1,3.3-.1,5.4,.1-1.4,.1-3.2,.1-5.4-.1Z"/>
    <path class="cls-30" d="M147.7,194.5c.6-.2,1.4-.3,2.6-.2-.5,.2-1.4,.2-2.6,.2Z"/>
    <path class="cls-18" d="M157.7,245.3c-.04-.08,1.31-.32,.6,.2,0,0-.5-.1-.6-.2Z"/>
    <path class="cls-56" d="M104.8,244.6c5.27-.09,13.82-1.58,18.7,.3-6,0-12.2-.1-18.7-.3Z"/>
    <path class="cls-95" d="M112.2,465.3c-6.8-.4-13.3-.8-20.3-1.2,15.35-2.25,32.51-3.52,48.2-4.7,.4,.6,.4,1.3,0,2.4-9.72,1.29-18.51,2.4-27.9,3.5Z"/>
    <path class="cls-86" d="M141.7,440c.6,.4,.7,.9,.9,1.7-11.94,1.35-24.25,3.26-36.5,4.1-.5-.9-.6-1.6-.8-2.2,12-1.2,24-2.4,36.4-3.6Z"/>
    <path class="cls-8" d="M104.8,443.5c.6,.8,.8,1.4,.9,2.3-3.3,0-6.7-.3-10.3-.8,2.8-.6,5.9-1.1,9.4-1.5Z"/>
    <path class="cls-106" d="M186.9,409.1c-.4-.5-.4-.9-.4-1.5,1.2-.5,2.4-.7,3.8-1.2,5.31-.3,11.13,.63,16.3,1-.1,.9-.2,1.5-.3,2.2-3.16,.59-7.63-.36-10.8,.4-2.7-.3-5.4-.6-8.6-.9Z"/>
    <path class="cls-29" d="M195.8,409.8c0-.2,.2-.3,.6-.4,.1,.2-.1,.3-.6,.4Z"/>
    <path class="cls-115" d="M243.6,408.07c-.5,.4-1,.7-1.7,1.3-7.45-2.39-12.51-9.36-19.3-13.6,5.05-2.79,16.59,6.46,22.4,8.6-.3,1.1-.5,1.9-.7,2.6,0,0,.2,0-.1,0-.3,.4-.5,.8-.6,1.1Z"/>
    <path class="cls-29" d="M206.8,409.57c-.4-.8-.3-1.4,.2-2.4,2.41-.57,4.52,.41,6.7-.3,1.03,.3,2.27-.28,3.1,.5,4.5,.9,8.6,1.5,12.8,2.1-7.4,.1-14.8,.2-22.8,.1Z"/>
    <path class="cls-106" d="M230.1,409.97c-4.5-.6-8.7-1.2-12.7-2.1,7.29,.53,15.66-2.53,22,1.4-.14,.6-2.48,.27-2.9,.5-.42,.16-2.57-.26-3,.2h-3.4Z"/>
    <path class="cls-91" d="M241.7,410.4c.1,.3,0,.8-.3,1.5-.1-.3,0-.8,.3-1.5Z"/>
    <path class="cls-29" d="M233.8,409.5c0-.3,.3-.3,.8-.3-.1,.3-.3,.4-.8,.3Z"/>
    <path class="cls-29" d="M236.7,409.3c-.11-.07,1.34-.5,.6,.1,0,0-.5,0-.6-.1Z"/>
    <path class="cls-9" d="M82.5,299c-3.3-.3-6.7-.6-10.5-1-.4-2.1-.4-4.1,0-6.6,5-1,9.6-1.7,14.2-2.4,3-.4,2.3-2.1,1.3-3.9,6.09-1.64,9.83,14.34-5,13.9Z"/>
    <path class="cls-15" d="M87.2,285c5.43,6.18-11.54,4.66-15.2,6,1.03-3.3,2.36-8.15,6.5-9,2.9,.9,5.7,1.9,8.7,3Z"/>
    <path class="cls-77" d="M105.4,288.1c1.8-1.5,3.5-3.1,5.3-4.6,1,2,2.1,4,2.9,6.6-3.3,3-5.6,1.5-7.9-.9-.1-.5-.2-.8-.3-1.1Z"/>
    <path class="cls-19" d="M115.6,297.7c-5.2,1.62-8.81-.68-15-1.6,2.3-1.4,3.4-2.1,5.1-2.7,3.2,2.6,5.8,4.1,8.8,.7,.3,1,.7,2.1,1.1,3.6Z"/>
    <path class="cls-82" d="M114.94,293.7c-3.33,5.06-10.09,.61-8.8-4.2,3,3.16,5.07,2.92,8.8,.8v3.4Z"/>
    <path class="cls-47" d="M150.2,298.3c-11,.2-22.5,.3-34.3,.2,10.72-.22,23-.86,34.3-.2Z"/>
    <path class="cls-6" d="M146.5,295.6c-1,.7-2.1,1.1-3.6,1.5-2.6-2.7-2.7-5.3,.5-7.9,1.76,1.47,2.03,4.37,3.1,6.4Z"/>
    <path class="cls-47" d="M109.1,298c.6,0,.8,.1,1.3,.3-5.2,.2-10.6,.3-16.5,.3,4.7-.4,9.7-.5,15.2-.6Z"/>
    <path class="cls-47" d="M82.9,299.1c1.81-.19,5.12-1.45,7.5-.7-1.89,1.76-4.93,.38-7.5,.7Z"/>
    <path class="cls-19" d="M105.6,289.2c-.1,.5-.1,.8-.3,1.5-.2-.5-.4-1.4-.2-2.5,.4,.2,.5,.5,.5,1Z"/>
    <path class="cls-5" d="M78.4,281.9c0,.1-.2,.1-.6,.2,0-.2,.2-.3,.6-.2Z"/>
    <path class="cls-5" d="M75.7,283.3c0,.1-.3,.4-.8,.8,0-.2,.3-.4,.8-.8Z"/>
    <path class="cls-19" d="M114.6,290.1l.1-.2s0,.2-.1,.2c-.1,.1,0,0,0,0Z"/>
    <path class="cls-47" d="M171.2,298.2c-3.7,.2-7.8,.4-12.3,.3,3.7-.2,7.8-.3,12.3-.3Z"/>
    <path class="cls-5" d="M38.4,285.3c0,.2-.2,.5-.6,1.1,0-.2,.1-.5,.6-1.1Z"/>
    <path class="cls-87" d="M94.9,481.5c.8-.2,1.8-.3,3.3-.3-.8,.2-1.9,.3-3.3,.3Z"/>
    <path class="cls-16" d="M61.6,374c-.6-3.4-1.2-6.7-1.9-10.5,3.6-1.7,6.4-6.3,11.5-3.1-1.4,1.5-2.9,2.6-4.5,3.6,2.6,.4,4.6-.1,6.6-.9,12.09-4.49,25.48,.67,30.5,12.6-9.44,6.83-21.41,4.49-32.3,5.2-2.96-3.26-5.55-6-9.9-6.9Z"/>
    <path class="cls-81" d="M215.3,332.5c6.3-.6,12.3-.8,19-.8,2.3,11.7,.1,22.4-5.2,32.4-4.31-3.59-10.45-3.53-15.5-5,.61-8.91-1.74-18.09,1.7-26.6Z"/>
    <path class="cls-20" d="M77.6,359c-.2-6.8-5.4-2.4-8.5-3.7,4.98-11.43,33.29-7.15,37.1,4.5-9.39,3.66-19.34,1.02-28.6-.8Z"/>
    <path class="cls-17" d="M194.6,385.1c-1,1.4-2,2.8-3.5,4.7-9.5,.4-18.5,.4-27.5-.1,.7-2.3,1.3-4.2,2.2-6.3,2.8-1.8,6.9-1.7,6.6-6.2,.7-1,1.3-2,2.6-3.1,7.1,3.6,13.3,7.3,19.6,11Z"/>
    <path class="cls-19" d="M160.6,364.5c-.77,11.91,4.69,6.27,8.7,11.8-9.38,8.67-18.92,7.08-24.7-4.3,1.4-1.6,2.8-2.9,4.3-3.9,4.49,3.36,6.17,8.2,8.9-2.7-3.16,1.15-6.14,.45-9.1-.3-.7-1.8-1.4-3.2-1.7-4.7,5.4-.5,10.3-.7,13.6,4.1Z"/>
    <path class="cls-17" d="M134.5,360.1c1.6,.6,3.2,1.1,5,2.3-.9,8.5,3.4,14.2,8.2,20.1-.54,9.59-15.96,3.54-15-5.9,2.18-5.31,1.64-11.01,1.8-16.5Z"/>
    <path class="cls-114" d="M195.34,385.1c-7.62-3.88-14.78-9.2-22.5-12.5-2.5,.3-4.5-.4-4.5-2.8,0-1.8,1-4.4,2.4-5.4,7.5-5.85,16.51-8.54,26.2-3.2-.02,1.03,.01,2.47,0,3.1-8.24-5.18-20.01-4.22-25.8,3.6,2.99,4.1,29.7,12.94,24.2,17.2Z"/>
    <path class="cls-123" d="M108,359.9c8.4-2.5,16.7-4.5,25.3,0-.6,2.7-1.2,4.9-1.8,6.8-2-5.9-12.7-8.7-16.4-4.4-2.78,5.82,4.79,11.29,6.4,16.6-1.5,.4-2.7,.7-4.2,1-5.22-3.87-5.64-14.23-9.3-20Z"/>
    <path class="cls-123" d="M77.2,359.1c10.88,2.02,32.44,2.69,29,19.1-3.4,1.7-6.5,3.1-9.7,4.3-1-.9-1.9-1.6-2.8-2.3,3.62-.58,6.64-3.15,9.9-4.6-5.01-11.97-18.4-16.98-30.5-12.6-2,.7-4,1.2-6.6,.9,3.09-2.52,6.45-4.55,10.7-4.8Z"/>
    <path class="cls-25" d="M106.5,378c2.2-8.9-4.3-12.1-10.7-15.7,3.54-.86,7.7-1.79,11.8-2.4,3.51,5.95,5.1,12.22,7.4,18.9-3,0-5.7-.4-8.5-.8Z"/>
    <path class="cls-118" d="M227.9,395.3c-8.79-.16-19-.64-27.2-1.5,0-.8,0-1.2,.1-1.6,14.69-.66,31.12-2.28,45.6,.3-6.11,1.24-12.26,3.15-18.5,2.8Z"/>
    <path class="cls-96" d="M163.6,390.17c13.56,.6,28.65-1.12,42.2,.8-44.78-.46-89.67,1.19-134.4-.6,30.49-.93,61.89-.12,92.2-.2Z"/>
    <path class="cls-109" d="M147.6,382.1c-4.8-5.5-9.1-11.1-7.9-19.4,1.1-.7,2.1-1.1,3.4-1.2-2.8,4.3-.7,7.5,1.5,10.8,6.14,11.13,10.87,7.18,17.9,12.3-5.1-.6-10-1.6-14.9-2.5Z"/>
    <path class="cls-109" d="M204.74,371.6c0-.6,.1-1.3,.6-2.2,1.1-.3,1.8-.3,2.4,0-1.25,5.2,7.57,10.57,10.7,13.8,4,2.9,6.1-2.7,9.4-2.9-.4,1.5-.7,2.6-1.4,3.8-10.77,4.24-18.46,.53-21.5-11,.04-.25-.13-1.39-.2-1.5Z"/>
    <path class="cls-27" d="M213.2,359.1c4.4,.8,8.5,1.7,12.5,2.8-1.1,.8-2.1,1.4-3.4,2.1-4.8-1.4-9.2-1.3-13.4,2.1-1.4-.1-2.3-.1-3.3-.1,1-3.7,3.7-5.7,7.6-6.9Z"/>
    <path class="cls-59" d="M218.04,386.5c5.69-2.2,10.27-3.39,14.9,2v2.5c-4.4,0-8.8,0-13.6-.1-.8-1.4-1-2.8-1.3-4.4Z"/>
    <path class="cls-17" d="M144.6,371.9c-3.29-2.85-4.6-11.04,2-11.6,.88,1.63,2.56,5.32,2.2,7.5-1.4,1.3-2.7,2.5-4.2,4.1Z"/>
    <path class="cls-114" d="M147,359.97c-1.21,.13-2.19-.25-3-.8,6.15-1.85,15.36-4.4,18,3.8,.1,.3-.5,.7-1.1,1.2-3.6-4.8-8.5-4.6-13.9-4.2Z"/>
    <path class="cls-115" d="M162.7,384.2c-.9-.5-1.7-1-2.8-1.7,3.8-1.67,7.69-6.97,12.4-5.6,.77,5.03-6.24,6.09-9.6,7.3Z"/>
    <path class="cls-28" d="M131.5,367.1c.98-1.79,.67-6.28,2.8-6.9,.2,3.7,.2,7.5-.4,11.5-1.3,.4-2,.5-2.8,.2,0-1.9,.2-3.4,.4-4.8Z"/>
    <path class="cls-103" d="M196.7,364.5c-.2-1.1-.2-1.8-.2-3,2.3,1.9,4.5,4.2,6.8,6.5l-1.3,1.3c-1.7-1.4-3.4-3-5.3-4.8Z"/>
    <path class="cls-50" d="M121.9,331.5c6.4-.2,13.1-.3,20.3-.3-6.3,.3-13.1,.4-20.3,.3Z"/>
    <path class="cls-50" d="M160.9,331.6c5.7-.2,11.8-.3,18.4-.3-5.7,.3-11.9,.4-18.4,.3Z"/>
    <path class="cls-114" d="M205.94,365.97c1,0,1.9,0,3.1,.4-.2,1.1-.8,1.8-1.3,2.6h-2.3c-.75-.56,.57-2.35,.5-3,0,.1,0,0,0,0Z"/>
    <path class="cls-59" d="M206.2,390.9c-.4,0-.6-.4-.6-.5,2.1-.1,4.2-.1,6.7,.2-1.7,.2-3.7,.2-6.1,.3Z"/>
    <path class="cls-50" d="M200.8,331.4c1.5-.2,3.3-.2,5.4-.1-1.4,.2-3.2,.2-5.4,.1Z"/>
    <path class="cls-114" d="M204.6,373.4c.3,.3,.6,.9,.8,1.8-.3-.2-.6-.8-.8-1.8Z"/>
    <path class="cls-103" d="M196.4,360.9c-.3,.1-.8-.1-1.6-.5,.4,0,.9,.1,1.6,.5Z"/>
    <path class="cls-50" d="M213.8,331.97c0-.3,.3-.3,.8,0h-.8Z"/>
    <path class="cls-114" d="M204.3,371.8c.2,.1,.2,.3,.3,.9-.1,0-.3-.3-.3-.9Z"/>
    <path class="cls-27" d="M205.5,366.3c.2,.1,.2,.4-.1,.7-.3-.2-.2-.4,.1-.7Z"/>
    <path class="cls-18" d="M61.5,374.27c.3-.2,.5-.1,1,.3-1.88,12.77,21.2,9.98,29.1,9.8-.3,1.8-.6,3.2-1.4,4.6-10.98-.38-22.18,.91-32.9-.8-.78-5.29-.94-10.43,1.6-15.1,.8,.5,1.6,1,2.6,1.2Z"/>
    <path class="cls-114" d="M58.94,372.7c-.7,2.4-1.4,4.4-2.5,6.9-9.2,7.5-11.4,7.5-17.5,.3,.02-.5-.12-1.47,.2-1.8,1.4,0,2.5,0,3.7,.2,.8,1.1,1.3,2,2,3.1,2.94,1.28,6.03-.6,8.1-2.3,7.64-6.17-1.33-18.68-9.3-10.3-4.41-.53-4.82,2.93-5.9,6.1-5.01-15.35,24.69-18.33,21.2-2.2Z"/>
    <path class="cls-12" d="M38.7,380.3c6.1,6.8,8.4,6.8,17.5-.4,.5,2.5,.8,5.2,1.1,8.3,1.1,.45,4.46,.1,5.2,1.6-7.64,.08-16.56-.16-24.5,.2,2.1-2.9,1.4-6.1,.7-9.7Z"/>
    <path class="cls-123" d="M42.5,378.1c-.86-.06-3.55,.12-4.8-.3-.13-3.5,.69-10.29,5.7-8.6-.3,3.5-.6,6.2-.9,8.9m-1.7-3.5c.2,0,.3,.1,.5,.1-.2-.1-.3-.2-.5-.1Z"/>
    <path class="cls-12" d="M37.7,378.2c-.1-.3,.4-.2,.6-.1,.3,.5,.3,.9,.4,1.7-.2-.2-.6-.8-1-1.6Z"/>
    <path class="cls-67" d="M114.6,465.4c8.22-2.28,16.73-2.13,25.5-3.3,1.49,4.31-9.95,2.25-12.6,5.1-4.2-.08-8.85-.82-12.9-1.8Z"/>
    <path class="cls-71" d="M137.7,465.4c.5-.6,1.1-.9,2.1-1.2,0,1.2-.3,2.4-.8,3.8-.6-.5-.9-1.4-1.3-2.6Z"/>
    <path class="cls-1" d="M129.7,394.3c21.32,1.33,42.65-.91,63.7,1.4-1,3.8-1.9,7-2.8,10.3-40.6,.1-81.36,.1-121.93,.2-8.5,.02-21.51,1.53-19.77-11.2,26.85-.57,54.11,.06,80.8-.7Z"/>
    <path class="cls-25" d="M48.6,395.1c0,4.2,.8,8,5,10.6-6,.3-12,.3-18.4,.3-3.57-4.58-2.75-13.89,5.1-11.2,2.73-.21,5.77,.33,8.3,.3Z"/>
    <path class="cls-115" d="M37.4,394.2c-.15,.05-2.54,1.16-2.8,.2,.8-.3,1.6-.3,2.8-.2Z"/>
    <path class="cls-59" d="M231.4,310.9c1.3,5.1,2.7,10.2,4.1,15.7-7.6,.4-15.3,.4-23.4,.5-1.1-4.6-1.8-9.3-2-14.4,7.4-.9,14.3-1.3,21.3-1.8Z"/>
    <path class="cls-69" d="M231.4,310.6c-7.34,.52-15.06,1.91-22.7,1.4-.19-.86-1.84-3.56-.5-3.9,7.62,.46,14.37-1.07,21.8-2,.93,1.05,.94,2.79,1.4,4.5Z"/>
    <path class="cls-37" d="M181.6,327.8c-22.7,.2-45.4,.3-68.6,.2,22.24-1.52,46.68-1.47,68.6-.2Z"/>
    <path class="cls-23" d="M207.7,308s-.2,.4-.3,.6c-42.4,.1-84.7-.1-127.5-.6-.5-.5-.5-.7-.5-1.1-1.3-.8-2.6-1.3-3.9-2.1,.59-3.39,10.26-2.03,12.8-3.7,2.66,.21,7.11,.31,9.9,1.4,.1,.2,.3,.7,.5,1,25.57,2.95,52.22,1.1,77.6,1.5,10.22-3.94,21.23,.88,31.4,3Z"/>
    <path class="cls-68" d="M79.94,307.1v.8c-16.95,.66-33.34,1.04-50.4,1.2-.5-.5-.5-1-.5-1.9,4.8-4,10.1-1.5,16-1.1,6.96-.36,16.14,3.34,20.4-1.8,.8,0,1.3,.1,1.8,.5,3.7,3.39,8.16,2.16,12.7,2.3Z"/>
    <path class="cls-56" d="M80.8,245c3.7-.3,7.8-.4,12.4-.5-3.6,.3-7.8,.4-12.4,.5Z"/>
    <path class="cls-82" d="M70.4,248.9c-.5,.2-1.3,.3-2.5,.3,.6-.2,1.4-.3,2.5-.3Z"/>
    <path class="cls-56" d="M100.3,244c.8,0,1.2,.1,2.1,.3-.6,.2-1.5,.3-2.6,.3-.1-.3,0-.4,.5-.6Z"/>
    <path class="cls-71" d="M127.8,467.4c1.2-.9,2.7-1.5,4.6-2.2-.1,2.9-1.9,3.3-4.6,2.2Z"/>
    <path class="cls-71" d="M118.7,466.5c1.4-.1,2.9,0,4.7,.4-1.4,.1-3,0-4.7-.4Z"/>
    <path class="cls-100" d="M241.7,331.3c5.75-.43,13.78,.33,19.3,2.2,0,5.5,0,10.5-.2,15.5-6.21,.81-12.99,4.72-16.5-3.2-.5-1-2.4-1.3-3.7-2.3,.3-4.3,.6-8.2,.9-12.1,.1,.2,.1,0,.2-.1Z"/>
    <path class="cls-50" d="M261,330.9c.4,.6,.3,1.2,0,2-3-.3-5.8-.8-9-1.5,2.7-.2,5.6-.3,9-.5Z"/>
    <path class="cls-50" d="M241.1,331.5c-.4,17.98-2.14,38.49-12.5,53.7-.5-.3-1-.5-1.8-.9,1.46-6.43,3.46-13.14,2.5-19.8,5.1-10.2,7.3-20.9,5.4-32.6,1.9-.5,4-.5,6.4-.4Z"/>
    <path class="cls-55" d="M106.6,236.67c-7.54,7.55-3.7,4.33-12.3,6.3h-11.3c8.11-4.53,16.23-10.2,23.8-15.8,.2,2.9,.1,6-.2,9.5Z"/>
    <path class="cls-11" d="M64.6,304.4c-3.52,5.08-13.45,1.28-19.6,1.7,4.91-2.85,13.82-3.12,19.6-1.7Z"/>
    <path class="cls-65" d="M64.9,304.3c-1.2-.2-2-.5-3.2-.9,7.91-2.3,17.07-3.51,25.8-2.3-6.28,1.52-15.7,2.5-22.6,3.2Z"/>
    <path class="cls-110" d="M74.2,300.5c-.63,.5-2.71,.84-3.6-.1,1-.1,2.1-.1,3.6,.1Z"/>
    <path class="cls-109" d="M48.9,395c-2.86,.16-6.58-.55-9.5-.6,1.07-.87,2.89-2.16,4.1-2.2,16.58,.52,33.94-1.33,50.2,.7-13.94,1.7-29.86-2.08-43.1,2-.4-.1-.9,0-1.7,.1Z"/>
    <path class="cls-109" d="M200.2,392.2c.5,.5,.4,.9,0,1.7-17.86,.13-35.62-.77-53.5-.8,17.58-2.28,35.31-.41,53.5-.9Z"/>
    <path class="cls-93" d="M82.7,392.97c11.7-.2,24.71,.08,36.2,.6-11.5,1.42-24.72,.42-36.1,0-.2-.2-.1-.6-.1-.6Z"/>
    <path class="cls-59" d="M163,394.8c-9.9,0-19.8,0-30-.2,9.53-1.1,20.55-.55,30,.2Z"/>
    <path class="cls-20" d="M62.9,389.9c-.4-.1-.4-.5-.4-.6,8.98,.35,19.37-1.28,28.1,.6-8.97-.01-18.43,.57-27.7,0Z"/>
    <path class="cls-59" d="M108.9,394.8c6.09-.86,13.79-.9,20.3-.6-6.3,.4-13.1,.6-20.3,.6Z"/>
    <path class="cls-93" d="M153.6,393.97c-4.7,0-9.4,.1-14.5,.1,3.76-.47,10.91-2.23,14.5-.1Z"/>
    <path class="cls-20" d="M44,390c1.4-.2,3.2-.3,5.2-.3-1.3,.2-3,.3-5.2,.3Z"/>
    <path class="cls-113" d="M94.5,242.8c0-.2,.3-.3,.8-.4,0,.2-.2,.3-.8,.4Z"/>
    <path class="cls-113" d="M97.7,242.3c.1-.1,.2-.1,.7-.1,.3,0-.1,.2-.1,.2,0,0-.5,0-.6-.1Z"/>
    <path class="cls-80" d="M208.2,308.1c-6.41-1.61-12.05-2.52-18-4.3,3.24-1.02,5.96-2.32,9.3-1.8,10.1,1.91,21,.88,30.3,3.9-7.18,1.32-14.06,2.69-21.6,2.2Z"/>
    <path class="cls-65" d="M228.5,304.57c-9.5-.6-19.2-1.5-28.7-2.6,9.46-.54,19.58-.35,28.7,2.6Z"/>
    <path class="cls-65" d="M196.5,301.47c-4.56,1.88-9.45,2.01-14.9,1.7-23.91-.23-45.84-.47-68.5,1.4-.6-1.2-.7-2.1-.8-3,20.44-.1,41.28-1.49,62.1,.4,7.21-.05,11.49,.32,18.2-.7,2.08,.16,2.42-.53,3.9,.2Z"/>
    <path class="cls-80" d="M112.1,301.97c.4,.9,.5,1.8,.7,3.1-4.6,0-9.2-.4-13.5-1.1,4.58-.87,8.44-1.76,12.8-2Z"/>
    <path class="cls-78" d="M98.2,302.3c-.8-.1-1.6-.2-2.6-.5,3.9-.4,8.1-.7,12.2-.5-3.2,.6-6.4,.8-9.6,1Z"/>
    <path class="cls-65" d="M98.3,302.5c3.7-.32,8.09-1.04,12.2-1.1-2.44-.04-10.06,2.67-12.2,1.1Z"/>
    <path class="cls-78" d="M186.7,301.7c-3.5,.3-7.5,.3-11.9,.3-.4-.3-.4-.5-.2-.9,3.9-.1,7.8,.1,12.1,.6Z"/>
    <path class="cls-78" d="M168.8,301.6c-.8,.1-1.8-.1-3-.5,.8-.1,1.8,.1,3,.5Z"/>
    <path class="cls-117" d="M214.3,301.7c-1.8,.2-4,.2-6.6,0,1.9-.2,4.1-.2,6.6,0Z"/>
    <path class="cls-110" d="M195.4,300.9c-.5,.2-1.3,.3-2.4,.3,.5-.2,1.3-.3,2.4-.3Z"/>
    <path class="cls-107" d="M150.6,233.1s-.1-.1,0,0h0Z"/>
    <path class="cls-59" d="M191.6,394c9.91,.05,20.38,.62,30.4,1.2,.5,0,.6,.3,.6,.9,0,6.27-5.52,7.28-8.5,10.9-7.59-.19-15.4-.42-23.1-.9,.5-3.4,1.4-6.6,2.4-10.4-1.6-.3-3-.5-4.4-.9,.8-.4,1.7-.6,2.6-.8Z"/>
    <path class="cls-39" d="M245.9,397.3c-.57,2.12-.71,4.36-.4,6.6-5.7-1.67-11.86-5.51-17.6-8.2,5.66-.58,12.75,1.17,18,1.6Z"/>
    <path class="cls-91" d="M245,404.4c.92-.95-.12,1.9-.5,2.4,0-.5,.2-1.3,.5-2.4Z"/>
    <path class="cls-91" d="M243.8,407.9c-.1-.2,0-.5,.4-1,.1,.3,0,.6-.4,1Z"/>
    <path class="cls-42" d="M214.7,406.2c3.2-2.7,7.7-4.2,7.9-9.8,4.8,3.1,9.5,6.6,14.1,10.4-7.01-.34-15.2,1.78-22-.6Z"/>
    <path class="cls-106" d="M211.8,407.3c.3-.2,.8-.2,1.6-.3-.3,.2-.9,.3-1.6,.3Z"/>
    <path class="cls-106" d="M214.6,406.4c.5-.1,.7,.1,1.2,.5,.03,.25-2.19,.45-1.2-.5Z"/>
    <path class="cls-29" d="M91.6,384.1c-7.46,1.72-14.85,.42-22.3-.9,.8-.9,1.6-1.5,2.4-2.2,6.53,.86,19.94-3.45,24.5,1.7-1.7,.7-3.2,1-4.6,1.4Z"/>
    <path class="cls-109" d="M71.3,380.9c-.5,.8-1.3,1.4-2.5,2.2-5-.6-6.8-3.5-6.2-8.4,3.74,.77,6.22,3.25,8.7,6.2Z"/>
    <path class="cls-103" d="M229.1,364.1c.3,4,.3,7.7,.1,11.2,.4-5.5-4.4-7.7-6.6-11.4,1-.6,2.1-1.2,3.4-1.8,1.2,.7,2,1.2,3.1,2Z"/>
    <path class="cls-1" d="M91.6,384.47c5.01-1.57,9.99-3.77,14.7-6.2,9.9-.86,19.61,9.22,26.3-1.3-.99,8.88,14.45,15.25,15,5.6,4.9,.5,9.7,1.5,14.8,2.1,1-.5,1.7-.7,2.8-.9-.3,1.8-.9,3.7-1.6,6-17.74,.33-35.88,.26-54,.2h-18.6c-1.25-1.01,.6-3.76,.6-5.5Z"/>
    <path class="cls-114" d="M149,368.17c-.2-.8-.2-1.4-.2-2.3,1.6-.2,3.3,0,5.1,.6,.8,1.13,.26,2.14,.1,3.1-.8,.6-1.3,1-1.8,1.4h-.1c-.9-.9-1.9-1.7-3.1-2.8Z"/>
    <path class="cls-14" d="M154.3,369.2c-.3-.2-.3-.4,.1-1,.15-.96-.09-1-.4-1.7,1.2-.5,2.4-.8,3.8-1.2q-2.4,7.6-5.5,5.7c-.2-.3-.1-.3,.3-.4,.8-.4,1.3-.9,1.7-1.4Z"/>
    <path class="cls-109" d="M132.6,376.6c-3.6,5.6-8.3,6.7-14.7,3.7,5.62-2.39,12.03-.17,13.2-8.1,.7-.1,1.4-.2,2.5-.3-.1,1.4-.5,2.8-1,4.7Z"/>
    <path class="cls-20" d="M131,371.8c-1,4.9-3.4,7.6-8.8,7.1-2.51-5.02-9.87-10.94-7.1-16.6,5.39-5.55,19.51,.45,15.9,9.5Z"/>
    <path class="cls-98" d="M251.44,385.9c-.9,2.3-1.8,4.7-3.2,7-5.3-1.55-10.06-1.08-15.8-1.9-1.15-3.31,1.96-7.25,2.6-10.3,5.38-11.93,5.27-23.74,4.9-36.2,9.02,2.08,1.59,9.83,19.5,4.7,.92,12.39-5.24,25.07-8,36.7Z"/>
    <path class="cls-115" d="M246.2,392.4c.9,0,1.5,.2,2.2,.7-.5,1.6-1.2,2.8-2.3,4.2-4.7-.5-9.1-1.1-13.9-1.8,4.31-1.21,9.37-1.7,14-3.1Z"/>
    <path class="cls-20" d="M109.9,389.9c0-.2,.2-.3,.6-.1,.1,.1-.4,.2-.6,.1Z"/>
    <path class="cls-70" d="M222.4,364.1c3.76,4.18,8.93,8.63,5.3,15.4-3.3,.9-5.4,6.5-9.4,3.7-3.71-3.16-8.88-7.16-10.9-12.1,.5-7.1,9.16-9.16,15-7Z"/>
    <path class="cls-114" d="M207.2,371.3c.2,.2,.3,.7,.5,1.4-.3-.1-.4-.7-.5-1.4Z"/>
    <path class="cls-42" d="M235.6,381.1c-.8,2.2-1.7,4.4-2.7,6.8-1.5-.6-2.8-1.4-4.2-2.5,2-3.9,4-7.5,6.4-10.8,.4,2.3,.5,4.4,.5,6.5Z"/>
    <path class="cls-25" d="M42.7,378.4c.1-2.9,.4-5.6,.8-8.7,11.09-11.35,17.87,8.74,4.9,12.2-1.7-.1-2.8-.3-3.9-.6-.5-1-1-1.8-1.8-2.9Z"/>
    <path class="cls-123" d="M44.7,381.5c1-.1,2.1,.2,3.5,.5-.9,0-2.1-.1-3.5-.5Z"/>
    <path class="cls-114" d="M40.8,374.5c.2,0,.3,.1,.4,.2-.1,0-.2,0-.4-.2Z"/>
    <path class="cls-111" d="M191.2,393.8c-4.44,2.12-11,.26-16,1.1-6.57-.67-15.89,1.05-21.7-1.4,12.5-.2,24.9-.1,37.7,.3Z"/>
    <path class="cls-115" d="M51.1,394.97c7.02-3.62,17.86-.18,25.5-.5-.1,.2-.2,.5-.2,.5h-25.3Z"/>
    <path class="cls-59" d="M76.9,395c5.15-2.39,14.25-.22,21.3-.6-6.6,.4-13.7,.5-21.3,.6Z"/>
    <path class="cls-59" d="M175.7,395c.3-.2,1-.3,1.9-.2-.3,.1-.9,.2-1.9,.2Z"/>
    <path class="cls-115" d="M39.6,394.6c.1-.3,.3-.4,.8-.2,.12,.37-.43,.34-.8,.2Z"/>
    <path class="cls-80" d="M120.9,305c1.1-.6,2.8-1.7,4.4-1.7,18.5-.1,37-.1,55.9,0-19.01,4.61-40.09,.46-60.3,1.7Z"/>
    <path class="cls-11" d="M66.7,304.67c1.67-1.65,4.32,.11,6.3,.3,2.7-.23,4.25,.49,6.5,1.8-4.56,.12-9.1,1.34-12.8-2.1Z"/>
    <path class="cls-80" d="M75.6,304.8c-.8,.3-1.5,.3-2.7,0-.4-.7-.5-1-.5-1.4,.8-.1,1.6-.1,2.9-.1,.4,.4,.4,.8,.3,1.5Z"/>
    <path class="cls-60" d="M235.7,380.7c-.88-10.61,2.95-21.8,4.6-32.3,.9,10.8,.1,21.7-4.6,32.3Z"/>
    <path class="cls-23" d="M72.1,303.4c.4,.4,.5,.8,.5,1.4-1,.1-2-.2-3.1-.6,.6-.4,1.4-.6,2.6-.8Z"/>
    <path class="cls-121" d="M82.6,393.8c-6.74,1.05-14.01-.12-20.8-.4,6.4-.2,13.1-.2,20.3-.2,.6,0,.5,.4,.5,.6Z"/>
    <path class="cls-121" d="M57.3,393.1c-1.3,.3-3,.5-5.1,.8,1.3-.3,3-.5,5.1-.8Z"/>
    <path class="cls-19" d="M154,369.4c-.2,.3-.6,.8-1.4,1.4,.2-.4,.7-.9,1.4-1.4Z"/>
    <path class="cls-19" d="M154.3,367.3c.1,0,.3,.3,.3,.7-.2,0-.3-.2-.3-.7Z"/>
  </g>
</svg>